<svg xmlns="http://www.w3.org/2000/svg" id="Grupo_2564" width="375" height="203.058" data-name="Grupo 2564" viewBox="0 0 375 203.058">
    <defs>
        <style>
            .cls-1{fill:none}.cls-2{fill:#223d57}.cls-3{opacity:.56}.cls-4{fill:#6c8196}.cls-5{fill:#708eab}.cls-6{fill:#859db5}.cls-7{fill:#7f9ab5}.cls-8{clip-path:url(#clip-path)}.cls-9{fill:#deedff}.cls-10{clip-path:url(#clip-path-2)}.cls-11,.cls-15{fill:#00143a}.cls-11{opacity:.15}.cls-12{opacity:.04;fill:url(#linear-gradient)}.cls-13{fill:#0f3e6d}.cls-14{fill:#0d2a4c}.cls-16{fill:#62abf3}.cls-17{fill:#a2d1ff}.cls-18{fill:#0b4b89}.cls-19{fill:#b2cde7}.cls-20{fill:#7eb9f2}.cls-21{fill:#154593}.cls-22{fill:#133c77}.cls-23{fill:#103056}.cls-24{fill:#635449}.cls-25{fill:#63acf4}
        </style>
        <clipPath id="clip-path">
            <path id="Rectángulo_1316" d="M0 0h97.281v134.994H0z" class="cls-1" data-name="Rectángulo 1316"/>
        </clipPath>
        <clipPath id="clip-path-2">
            <path id="Trazado_2158" d="M68.675 316.032a9.6 9.6 0 0 0-9.343 9.14l-1.567 33.122 39.829 1.088-1.4-42.562z" class="cls-1" data-name="Trazado 2158" transform="translate(-57.766 -316.032)"/>
        </clipPath>
        <linearGradient id="linear-gradient" x1="143.141" x2="143.772" y1="1.119" y2=".18" gradientUnits="objectBoundingBox">
            <stop offset="0" stop-color="#fff"/>
            <stop offset=".232" stop-color="#fff" stop-opacity=".769"/>
            <stop offset="1" stop-color="#fff" stop-opacity="0"/>
        </linearGradient>
    </defs>
    <g id="Grupo_2425" data-name="Grupo 2425" transform="translate(0 71.177)">
        <path id="Rectángulo_1292" d="M0 0h375v193.058H0z" class="cls-2" data-name="Rectángulo 1292" transform="translate(0 -71.177)"/>
    </g>
    <g id="Grupo_2427" class="cls-3" data-name="Grupo 2427" transform="translate(-504 39.177)">
        <path id="Rectángulo_1295" d="M0 0h9.403v9.403H0z" class="cls-4" data-name="Rectángulo 1295" transform="translate(698.859 61.05)"/>
        <path id="Rectángulo_1296" d="M0 0h9.403v9.403H0z" class="cls-5" data-name="Rectángulo 1296" transform="translate(716.992 101.347)"/>
        <path id="Rectángulo_1297" d="M0 0h9.403v9.403H0z" class="cls-5" data-name="Rectángulo 1297" transform="translate(698.859 73.475)"/>
        <path id="Rectángulo_1298" d="M0 0h9.403v9.403H0z" class="cls-6" data-name="Rectángulo 1298" transform="translate(684.419 73.475)"/>
        <path id="Rectángulo_1299" d="M0 0h9.403v9.403H0z" class="cls-5" data-name="Rectángulo 1299" transform="translate(712.291 73.475)"/>
        <path id="Rectángulo_1300" d="M0 0h9.403v9.403H0z" class="cls-5" data-name="Rectángulo 1300" transform="rotate(180 346.911 54.871)"/>
        <path id="Rectángulo_1301" d="M0 0h9.403v9.403H0z" class="cls-5" data-name="Rectángulo 1301" transform="rotate(180 360.846 47.651)"/>
        <path id="Rectángulo_1302" d="M0 0h9.403v9.403H0z" class="cls-7" data-name="Rectángulo 1302" transform="rotate(180 346.911 47.651)"/>
        <path id="Rectángulo_1303" d="M0 0h9.403v9.403H0z" class="cls-5" data-name="Rectángulo 1303" transform="translate(743.856 85.9)"/>
        <path id="Rectángulo_1304" d="M0 0h9.403v9.403H0z" class="cls-5" data-name="Rectángulo 1304" transform="translate(742.849 73.475)"/>
        <path id="Rectángulo_1305" d="M0 0h9.403v9.403H0z" class="cls-5" data-name="Rectángulo 1305" transform="rotate(180 382.842 47.651)"/>
        <path id="Rectángulo_1306" d="M0 0h9.403v9.403H0z" class="cls-5" data-name="Rectángulo 1306" transform="rotate(180 368.906 47.651)"/>
    </g>
    <g id="Grupo_2513" data-name="Grupo 2513" transform="translate(84 -67.823)">
        <g id="Grupo_2512" class="cls-8" data-name="Grupo 2512" transform="translate(16.719 135.886)">
            <g id="Grupo_2511" data-name="Grupo 2511" transform="translate(21.433 47.23)">
                <g id="Grupo_2493" data-name="Grupo 2493" transform="translate(2.045 55.811)">
                    <path id="Trazado_2155" d="M68.675 316.384a9.6 9.6 0 0 0-9.343 9.142l-1.567 33.121 39.829 1.09-1.4-42.563z" class="cls-9" data-name="Trazado 2155" transform="translate(-57.766 -316.183)"/>
                    <g id="Grupo_2492" data-name="Grupo 2492">
                        <g id="Grupo_2491" class="cls-10" data-name="Grupo 2491">
                            <path id="Trazado_2156" d="M72.029 312.8s20.726-2.522 23.249 1.983 1.082 45.057 1.082 45.057H85.906L84.4 323.256l-2.5.065a9.655 9.655 0 0 1-9.888-10.215z" class="cls-11" data-name="Trazado 2156" transform="translate(-63.856 -314.349)"/>
                            <path id="Trazado_2157" d="M99.859 309.3s20.726-2.524 23.25 1.983 1.081 45.057 1.081 45.057h-10.453l-1.507-36.587-2.5.065a9.657 9.657 0 0 1-9.889-10.218z" class="cls-11" data-name="Trazado 2157" transform="translate(-75.768 -312.85)"/>
                        </g>
                    </g>
                </g>
                <path id="Trazado_2159" d="M127.6 252.158l-33.85-27.523-17.656 13.614 2.1 27.517 25.3 5.247 6.054-15.532z" class="cls-12" data-name="Trazado 2159" transform="translate(-63.566 -221.102)"/>
                <g id="Grupo_2495" data-name="Grupo 2495" transform="translate(28.21 51.529)">
                    <path id="Trazado_2160" d="M105.132 309.251s20.726-2.523 23.249 1.982 1.082 45.058 1.082 45.058H119.01L117.5 319.7l-13.992.361z" class="cls-13" data-name="Trazado 2160" transform="translate(-103.51 -308.547)"/>
                    <g id="Grupo_2494" data-name="Grupo 2494" transform="translate(8.061 9.498)">
                        <path id="Trazado_2161" d="M117.6 326.094a2.611 2.611 0 0 0 .445-.036l1.268-.16 2-.269 1.251-.172a4.146 4.146 0 0 1 1.368-.072.817.817 0 0 1 .53.4 1.89 1.89 0 0 1 .2.72l.144 1.678.3 3.712c.206 2.615.418 5.49.618 8.511.4 6.042.681 11.517.863 15.48l.212 4.7.065 1.276a2.6 2.6 0 0 0 .042.444 2.728 2.728 0 0 0 .014-.446c0-.3-.007-.729-.013-1.277-.018-1.11-.058-2.716-.123-4.7a475.655 475.655 0 0 0-.782-15.491c-.2-3.022-.42-5.9-.64-8.514l-.327-3.712c-.056-.582-.1-1.138-.161-1.684a2.064 2.064 0 0 0-.238-.8 1.023 1.023 0 0 0-.66-.484 2.151 2.151 0 0 0-.756-.015c-.239.031-.463.07-.685.1l-1.248.193-2 .316-1.247.208a2.709 2.709 0 0 0-.44.094z" class="cls-14" data-name="Trazado 2161" transform="translate(-117.603 -325.152)"/>
                    </g>
                    <path id="Trazado_2162" d="M118.345 310.662l-.228 10.114h-3.16l-4.174-9.8s6.248-.883 7.562-.314z" class="cls-11" data-name="Trazado 2162" transform="translate(-106.623 -309.37)"/>
                </g>
                <path id="Trazado_2163" d="M73.284 230.473c-1.28 1.9-3.8 2.376-6.026 2.928s-4.723 1.707-5.133 3.959c-.257 1.417.426 2.887.13 4.3-.61 2.909-4.557 3.483-6.592 5.65a6.1 6.1 0 0 0-1.143 6.006 8.851 8.851 0 0 0 4.114 4.738 13.142 13.142 0 0 0 12.667-.241 17.616 17.616 0 0 0 7.9-10.23 26.992 26.992 0 0 0 .406-13.1c-.315-1.61-.82-3.325-2.135-4.3s-3.641-.65-4.071.932" class="cls-15" data-name="Trazado 2163" transform="translate(-54.191 -223.235)"/>
                <path id="Trazado_2164" d="M75.727 302.5s-.11.25-.265.647a12.26 12.26 0 0 0-1.008 4.237l5.81-1.2" class="cls-16" data-name="Trazado 2164" transform="translate(-62.86 -254.428)"/>
                <g id="Grupo_2496" data-name="Grupo 2496" transform="translate(30.203 26.779)">
                    <path id="Trazado_2165" d="M149.163 299.074l1.2-.807a12.354 12.354 0 0 0 2.048-1.316 3.563 3.563 0 0 0 .82-.885 5.44 5.44 0 0 0 .692-1.335.467.467 0 0 1 .871-.146 3.836 3.836 0 0 1-1.034 2.807c-.925 1.17 1.366.661 2.2.49s3.457-.578 3.713-.361c.376.317.106.779-.735.929s-3.331.782-3.22 1.221 4.365-.5 4.365-.5.877-.345 1.023.157c.263.906-4.334 1.56-4.773 1.611-.3.036-.2.516.125.46s4.224-1.024 4.5-.1c.212.705-3.776.572-4.471 1.221s3.035-.206 3.21.476c.065.254.078.453-2.135.635-2.266.186-8.488-.309-8.488-.309l.136-4.315" class="cls-17" data-name="Trazado 2165" transform="translate(-125.008 -277.716)"/>
                    <path id="Trazado_2166" d="M115.18 265.34s2.6 17.83 3.612 18.205c6.936 2.574 15.5 1.591 15.5 1.591l.462 6.009s-22.52 2.409-24.57-6.3A148.141 148.141 0 0 1 107 265.277z" class="cls-17" data-name="Trazado 2166" transform="translate(-106.995 -265.277)"/>
                </g>
                <path id="Trazado_2167" d="M74.488 309.251s20.726-2.523 23.249 1.982 1.082 45.058 1.082 45.058H88.365L86.858 319.7l-2.5.065a9.656 9.656 0 0 1-9.888-10.215z" class="cls-18" data-name="Trazado 2167" transform="translate(-62.864 -257.018)"/>
                <path id="Trazado_2168" d="M137.818 271.965l-5.579 20.693H99.975v-1.371l12.946-.691 4.136-19.684z" class="cls-19" data-name="Trazado 2168" transform="translate(-73.787 -240.909)"/>
                <path id="Trazado_2169" d="M71.551 259.587s2.152-10.619 9.66-9.791 11.794 1.133 11.794 1.133 7.428-.814 8.325 7.333a7.979 7.979 0 0 1 .017 1.474l-.248 3.236-6.315-.526s-.527 10.632.38 13.526c1.027 3.273 2.573 7.547 2.573 7.547l-20.287-.22 2.034-22.028-7.935-1.683" class="cls-16" data-name="Trazado 2169" transform="translate(-61.621 -231.852)"/>
                <g id="Grupo_2501" data-name="Grupo 2501" transform="translate(18.77)">
                    <path id="Trazado_2170" d="M102.185 239.019a22.877 22.877 0 0 1 .034-3.275 3.226 3.226 0 0 0 2.765-3.066c.071-2.687-.308-8.865-.308-8.865l-5.008-2.236-4.4 4.418.8 12.545z" class="cls-17" data-name="Trazado 2170" transform="translate(-90.542 -219.793)"/>
                    <g id="Grupo_2497" data-name="Grupo 2497" transform="translate(6.219 6.042)">
                        <path id="Trazado_2171" d="M99.16 229.344a.653.653 0 0 0-.136.066 1.883 1.883 0 0 0-.352.253 2.34 2.34 0 0 0-.761 1.382 2.372 2.372 0 0 0 .078 1.105 2.4 2.4 0 0 0 .691 1.068 2.411 2.411 0 0 0 1.274.59 2.4 2.4 0 0 0 2.515-1.365 2.406 2.406 0 0 0 .2-1.39 2.413 2.413 0 0 0-.519-1.162 2.381 2.381 0 0 0-.884-.668 2.342 2.342 0 0 0-1.574-.115 1.876 1.876 0 0 0-.4.158.623.623 0 0 0-.129.077c.007.016.187-.095.546-.183a2.35 2.35 0 0 1 1.52.153 2.3 2.3 0 0 1 1.317 1.758 2.3 2.3 0 0 1-.2 1.313 2.276 2.276 0 0 1-2.373 1.288 2.306 2.306 0 0 1-1.208-.55 2.3 2.3 0 0 1-.757-2.061 2.344 2.344 0 0 1 .7-1.358c.271-.254.462-.344.452-.359z" class="cls-15" data-name="Trazado 2171" transform="translate(-97.88 -229.023)"/>
                    </g>
                    <g id="Grupo_2498" data-name="Grupo 2498" transform="translate(11.819 5.872)">
                        <path id="Trazado_2172" d="M110 228.738a.62.62 0 0 0-.151 0 1.889 1.889 0 0 0-.428.069 2.34 2.34 0 0 0-1.3.9 2.375 2.375 0 0 0-.423 1.024 2.407 2.407 0 0 0 .142 1.264 2.42 2.42 0 0 0 .877 1.1 2.4 2.4 0 0 0 2.86-.1 2.275 2.275 0 0 0 .494-.531 2.249 2.249 0 0 0 .305-.624 2.412 2.412 0 0 0 .054-1.271 2.372 2.372 0 0 0-.494-.992 2.34 2.34 0 0 0-1.357-.8 1.845 1.845 0 0 0-.432-.039.629.629 0 0 0-.15.011c0 .017.209 0 .571.081a2.346 2.346 0 0 1 1.292.814 2.3 2.3 0 0 1 .394 2.161 2.3 2.3 0 0 1-.762 1.087 2.277 2.277 0 0 1-2.7.093 2.3 2.3 0 0 1-.836-1.032 2.3 2.3 0 0 1 .243-2.182 2.344 2.344 0 0 1 1.232-.9c.358-.119.569-.115.569-.133z" class="cls-15" data-name="Trazado 2172" transform="translate(-107.67 -228.726)"/>
                    </g>
                    <g id="Grupo_2499" data-name="Grupo 2499" transform="translate(10.925 8.452)">
                        <path id="Trazado_2173" d="M107.123 233.29c0-.039-.23-.062-.51-.053s-.507.049-.505.088.23.062.51.052.507-.049.505-.087z" class="cls-15" data-name="Trazado 2173" transform="translate(-106.108 -233.235)"/>
                    </g>
                    <g id="Grupo_2500" data-name="Grupo 2500" transform="translate(3.946 8.661)">
                        <path id="Trazado_2174" d="M96.333 233.64a10.641 10.641 0 0 0-2.428.084 10.558 10.558 0 0 0 2.428-.084z" class="cls-15" data-name="Trazado 2174" transform="translate(-93.905 -233.6)"/>
                    </g>
                    <path id="Trazado_2175" d="M91.342 226.587s4.408-.57 5.051-4.611l4.952 4.264a5.179 5.179 0 0 0-1.4-5.692c-2.755-2.671-4.559-2.033-5.6-2a8.582 8.582 0 0 0-7.12 6.889 12.05 12.05 0 0 0-.216 1.3z" class="cls-15" data-name="Trazado 2175" transform="translate(-87.007 -218.459)"/>
                    <path id="Trazado_2176" d="M104.732 245.54a6.7 6.7 0 0 1-3.594-1.076 3.463 3.463 0 0 0 3.562 1.736z" class="cls-20" data-name="Trazado 2176" transform="translate(-93.055 -229.589)"/>
                </g>
                <path id="Trazado_2177" d="M110.434 271.223a2.319 2.319 0 0 0 .955 1.828 3.733 3.733 0 0 1 1.3 1.667 2.253 2.253 0 0 1-.173 1.4 3.793 3.793 0 0 1-2.8 2.212" class="cls-16" data-name="Trazado 2177" transform="translate(-77.953 -241.043)"/>
                <path id="Trazado_2178" d="M98.5 293.415l1.315-18.015c-.987 0-13.708-1.228-13.708-1.228l-2.586 19.8z" class="cls-21" data-name="Trazado 2178" transform="translate(-66.745 -242.303)"/>
                <path id="Trazado_2179" d="M98.88 286.316s-.271 5.36-.871 5.354c-2.387-.023-8.457-1.042-8.706-1.415s.611-5.1.611-5.1z" class="cls-22" data-name="Trazado 2179" transform="translate(-69.2 -247.006)"/>
                <g id="Grupo_2502" data-name="Grupo 2502" transform="translate(19.918 36.448)">
                    <path id="Trazado_2180" d="M99.726 285.174a1.447 1.447 0 0 0 .082-.308c.049-.213.122-.54.208-.973l.013-.062-.065-.011c-1.929-.321-6.03-.937-10.773-1.614h-.017l-.16-.023v1.824l.122.014c3.014.365 5.684.664 7.581.868l2.224.23a5.79 5.79 0 0 0 .784.057 8.294 8.294 0 0 0-.84-.141l-2.245-.316c-1.9-.259-4.513-.607-7.471-.973l.121.137v-1.54l-.16.138h.016c4.743.677 8.853 1.231 10.8 1.461l-.053-.073c-.062.409-.1.729-.133.951a2.52 2.52 0 0 0-.034.354z" class="cls-22" data-name="Trazado 2180" transform="translate(-89.014 -282.181)"/>
                </g>
                <g id="Grupo_2503" data-name="Grupo 2503" transform="translate(11.853 52.403)">
                    <path id="Trazado_2181" d="M74.915 310.075a.562.562 0 0 0 .008.146c.012.1.022.24.059.424a7.852 7.852 0 0 0 .448 1.586 8.782 8.782 0 0 0 1.3 2.26 8.521 8.521 0 0 0 2.646 2.219 8.922 8.922 0 0 0 4.043 1.069 8.692 8.692 0 0 0 1.157-.051l1.171-.149a7.908 7.908 0 0 1 1.193-.065 2.716 2.716 0 0 1 1.154.267 1.9 1.9 0 0 1 .84.828 3.9 3.9 0 0 1 .363 1.207c.122.863.21 1.766.3 2.675.175 1.823.292 3.718.375 5.66.164 3.885.159 7.593.17 10.966l.03 8.96c.009 2.553.034 4.608.044 6.041.011.708.021 1.261.026 1.642l.014.427a.567.567 0 0 0 .014.145.536.536 0 0 0 .014-.145c0-.1.008-.244.014-.427l.026-1.642.045-6.041c.019-2.547.019-5.588.03-8.96s.015-7.083-.148-10.978c-.083-1.945-.2-3.845-.382-5.673-.092-.916-.181-1.808-.309-2.693a4.163 4.163 0 0 0-.4-1.287 2.165 2.165 0 0 0-.955-.935 2.958 2.958 0 0 0-1.26-.287 8.062 8.062 0 0 0-1.231.073l-1.169.155a8.434 8.434 0 0 1-1.126.057 8.759 8.759 0 0 1-3.955-1.012 8.428 8.428 0 0 1-2.617-2.143 8.93 8.93 0 0 1-1.324-2.2 8.645 8.645 0 0 1-.494-1.556c-.072-.37-.101-.565-.114-.563z" class="cls-22" data-name="Trazado 2181" transform="translate(-74.913 -310.075)"/>
                </g>
                <g id="Grupo_2504" data-name="Grupo 2504" transform="translate(29.314 55.845)">
                    <path id="Trazado_2182" d="M105.441 316.386a16.7 16.7 0 0 0 3.04.026 16.711 16.711 0 0 0 3.029-.253 16.579 16.579 0 0 0-3.04-.026 16.6 16.6 0 0 0-3.029.253z" class="cls-22" data-name="Trazado 2182" transform="translate(-105.441 -316.092)"/>
                </g>
                <g id="Grupo_2505" data-name="Grupo 2505" transform="translate(23.972 61.603)">
                    <path id="Trazado_2183" d="M96.111 327.343c.058.052.34-.17.633-.495s.482-.63.424-.682-.34.17-.632.495-.482.63-.425.682z" class="cls-22" data-name="Trazado 2183" transform="translate(-96.101 -326.159)"/>
                </g>
                <g id="Grupo_2506" data-name="Grupo 2506" transform="translate(23.811 60.778)">
                    <path id="Trazado_2184" d="M95.915 326.845c.077 0 .163-.469.193-1.057s-.009-1.067-.086-1.071-.163.47-.193 1.057.009 1.067.086 1.071z" class="cls-22" data-name="Trazado 2184" transform="translate(-95.819 -324.717)"/>
                </g>
                <g id="Grupo_2507" data-name="Grupo 2507" transform="translate(14.623 52.159)">
                    <path id="Trazado_2185" d="M79.76 309.651c-.026.015.1.309.456.681a3.545 3.545 0 0 0 .7.561 3.984 3.984 0 0 0 2.1.586 3.58 3.58 0 0 0 .891-.117 1.535 1.535 0 0 0 .742-.347 5.593 5.593 0 0 0-.784.154 4.4 4.4 0 0 1-.845.054 4.391 4.391 0 0 1-1.976-.551 4.425 4.425 0 0 1-.7-.483c-.361-.316-.544-.565-.584-.538z" class="cls-22" data-name="Trazado 2185" transform="translate(-79.756 -309.649)"/>
                </g>
                <g id="Grupo_2508" data-name="Grupo 2508" transform="translate(22.177 32.77)">
                    <path id="Trazado_2186" d="M92.963 275.763a4.952 4.952 0 0 0 1.2.307c.747.147 1.787.309 2.944.423s2.21.158 2.971.16a4.929 4.929 0 0 0 1.233-.067 5.971 5.971 0 0 0-1.226-.13c-.756-.052-1.8-.128-2.95-.24s-2.189-.244-2.941-.341a6.016 6.016 0 0 0-1.231-.112z" class="cls-22" data-name="Trazado 2186" transform="translate(-92.963 -275.751)"/>
                </g>
                <path id="Trazado_2187" d="M109.229 389.3H98.775v-3.631h10.863z" class="cls-22" data-name="Trazado 2187" transform="translate(-73.274 -290.027)"/>
                <path id="Trazado_2188" d="M140.68 389.3h-10.919v-3.631h11.347z" class="cls-23" data-name="Trazado 2188" transform="translate(-86.536 -290.027)"/>
                <g id="Grupo_2509" data-name="Grupo 2509" transform="translate(20.325 17.898)">
                    <path id="Trazado_2189" d="M92.116 250.13l-.571 15.458h-1.82v-15.839z" class="cls-22" data-name="Trazado 2189" transform="translate(-89.725 -249.749)"/>
                    <path id="Trazado_2190" d="M90.4 275.413a.465.465 0 1 0 .465-.464.465.465 0 0 0-.465.464z" class="cls-21" data-name="Trazado 2190" transform="translate(-90.016 -260.535)"/>
                </g>
                <g id="Grupo_2510" data-name="Grupo 2510" transform="translate(30.393 18.573)">
                    <path id="Trazado_2191" d="M110.924 251.5l-1.782 15.365-1.814-.142 1.243-15.789z" class="cls-22" data-name="Trazado 2191" transform="translate(-107.327 -250.929)"/>
                    <path id="Trazado_2192" d="M108.364 276.768a.465.465 0 1 0 .464-.465.465.465 0 0 0-.464.465z" class="cls-21" data-name="Trazado 2192" transform="translate(-107.771 -261.789)"/>
                </g>
                <path id="Trazado_2193" d="M102.833 287.042s-12.776 2.2-14.722-4.735-2.985-12.516-2.985-12.516.231 17.519 2.446 18.866 16.236-.074 15.865-1.576" class="cls-11" data-name="Trazado 2193" transform="translate(-67.431 -240.43)"/>
                <path id="Trazado_2194" d="M71.486 266.948l7.935 1.683s.059 15.165 3.151 16.6c6.1 2.834 13.975 1.052 15.355.705.231-.177.489-.384.771-.627a3.537 3.537 0 0 0 .765-.933 5.472 5.472 0 0 0 .61-1.375.466.466 0 0 1 .86-.2 3.832 3.832 0 0 1-.861 2.864c-.853 1.223 1.4.577 2.23.355s3.416-.786 3.685-.586c.395.293.153.771-.678.972s-3.278.983-3.14 1.413 4.328-.759 4.328-.759.855-.4 1.031.095c.317.888-4.232 1.818-4.666 1.9-.3.055-.169.528.152.452s4.154-1.278 4.486-.376c.255.692-3.734.8-4.389 1.489s3.017-.389 3.233.281c.08.25.106.448-2.092.762a50.979 50.979 0 0 1-5.541.225c-2.441.345-21.631 2.805-24.649-4.842-3.393-8.586-2.576-20.098-2.576-20.098z" class="cls-17" data-name="Trazado 2194" transform="translate(-61.557 -239.213)"/>
                <path id="Trazado_2195" d="M107.013 392s5.521 1.027 4.135 1.447-11.078-.349-11.078-.349V392z" class="cls-24" data-name="Trazado 2195" transform="translate(-73.828 -292.736)"/>
                <path id="Trazado_2196" d="M139.161 392s5.521 1.027 4.134 1.447-11.078-.349-11.078-.349V392z" class="cls-24" data-name="Trazado 2196" transform="translate(-87.587 -292.736)"/>
                <path id="Trazado_2197" d="M89.324 233.858s-2.857-1.948-2.643-2.238l-.686.685 2.522 2.375z" class="cls-25" data-name="Trazado 2197" transform="translate(-67.804 -224.092)"/>
                <path id="Trazado_2198" d="M142.109 288.456a1.473 1.473 0 0 0 .865 1.85c.666.143 1.358-.455 1.547-1.334a1.473 1.473 0 0 0-.865-1.85c-.666-.144-1.356.454-1.547 1.334z" class="cls-9" data-name="Trazado 2198" transform="translate(-91.801 -247.838)"/>
            </g>
        </g>
    </g>
</svg>
