<svg xmlns="http://www.w3.org/2000/svg" xmlns:xlink="http://www.w3.org/1999/xlink" width="1920.344" height="443.073" viewBox="0 0 1920.344 443.073">
    <defs>
        <style>
            .cls-1{fill:none}.cls-2{fill:#223d57}.cls-3,.cls-38,.cls-47{opacity:.23}.cls-3{fill:url(#linear-gradient)}.cls-4,.cls-49{fill:#fff}.cls-5{fill:#879db4}.cls-25,.cls-6{fill:#00143a}.cls-36,.cls-6{opacity:.15}.cls-7{opacity:.56}.cls-8{fill:#6c8196}.cls-9{fill:#708eab}.cls-10{fill:#859db5}.cls-11{fill:#7f9ab5}.cls-12{fill:#1f3443}.cls-13{fill:#2b4c60}.cls-14{fill:#00162d}.cls-15,.cls-49,.cls-71{opacity:.04}.cls-15{fill:url(#linear-gradient-2)}.cls-16{fill:#a2d1ff}.cls-17{fill:#5fafff}.cls-18{opacity:.24}.cls-19{fill:#ffeadc}.cls-20{fill:#4c5966}.cls-21{fill:#90c7ff}.cls-22{fill:#bddeff}.cls-23{fill:#4296e8}.cls-24{fill:#7eb9f2}.cls-26{fill:#a7d3ff}.cls-27{fill:#3d8bd7}.cls-28{fill:#b4cce9}.cls-29{opacity:.76}.cls-30{fill:#357cc2}.cls-31{fill:#edf1f5}.cls-32{fill:#77a0c8}.cls-33,.cls-45{opacity:.36}.cls-34{fill:#004396}.cls-35{fill:#598aba}.cls-36{fill:#000c38}.cls-37{fill:#dfeeff}.cls-39,.cls-45{fill:#004b61}.cls-40{fill:#ffba98}.cls-41{fill:#5da7f0}.cls-42{fill:#99c4ee}.cls-43{fill:#7dbefe}.cls-44{opacity:.35}.cls-46{fill:#5b7d9e}.cls-47{fill:url(#linear-gradient-3)}.cls-48{fill:#85a1bc}.cls-50{fill:#55697d}.cls-51{fill:#2e3740}.cls-52{fill:#4d6b89}.cls-53{fill:#a1bcd7}.cls-54{fill:#c3def9}.cls-55{fill:#84a7ca}.cls-56{fill:#6b96c0}.cls-57{clip-path:url(#clip-path)}.cls-58{fill:#bfdfff}.cls-59{fill:#ffd584}.cls-60{fill:#b79380}.cls-61{fill:#a8d3ff}.cls-62{fill:#aaccea}.cls-63{fill:#004589}.cls-64{fill:#c84652}.cls-65{fill:#002951;opacity:.17}.cls-66{fill:#dbbea6}.cls-67{fill:#aec9e3}.cls-68{clip-path:url(#clip-path-2)}.cls-69{fill:#deedff}.cls-70{clip-path:url(#clip-path-3)}.cls-71{fill:url(#linear-gradient-5)}.cls-72{fill:#0f3e6d}.cls-73{fill:#0d2a4c}.cls-74{fill:#62abf3}.cls-75{fill:#0b4b89}.cls-76{fill:#b2cde7}.cls-77{fill:#154593}.cls-78{fill:#133c77}.cls-79{fill:#103056}.cls-80{fill:#635449}.cls-81{fill:#63acf4}
        </style>
        <linearGradient id="linear-gradient" x1="-19.677" x2="-18.375" y1=".943" y2=".478" gradientUnits="objectBoundingBox">
            <stop offset="0" stop-color="#fff"/>
            <stop offset="1" stop-color="#fff" stop-opacity="0"/>
        </linearGradient>
        <linearGradient id="linear-gradient-2" x1="115.036" x2="115.972" y1="1.176" y2=".22" xlink:href="#linear-gradient"/>
        <linearGradient id="linear-gradient-3" x2="1" y1=".5" y2=".5" xlink:href="#linear-gradient"/>
        <clipPath id="clip-path">
            <path id="Rectángulo_1315" d="M0 0h151.096v173.073H0z" class="cls-1" data-name="Rectángulo 1315" transform="translate(1768.903 178.591)"/>
        </clipPath>
        <clipPath id="clip-path-2">
            <path id="Rectángulo_1316" d="M0 0h170.075v236.01H0z" class="cls-1" data-name="Rectángulo 1316" transform="translate(16.719 135.886)"/>
        </clipPath>
        <clipPath id="clip-path-3">
            <path id="Trazado_2158" d="M76.839 316.032a16.779 16.779 0 0 0-16.334 15.98l-2.739 57.907 69.632 1.9-2.451-74.411z" class="cls-1" data-name="Trazado 2158"/>
        </clipPath>
        <linearGradient id="linear-gradient-5" x1="143.141" x2="143.772" y1="1.119" y2=".18" gradientUnits="objectBoundingBox">
            <stop offset="0" stop-color="#fff"/>
            <stop offset=".232" stop-color="#fff" stop-opacity=".769"/>
            <stop offset="1" stop-color="#fff" stop-opacity="0"/>
        </linearGradient>
    </defs>
    <g id="Grupo_2514" data-name="Grupo 2514" transform="translate(0 71.177)">
        <g id="Grupo_2425" data-name="Grupo 2425">
            <path id="Rectángulo_1292" d="M0 0h1920v440.896H0z" class="cls-2" data-name="Rectángulo 1292" transform="translate(0 -71.177)"/>
        </g>
        <path id="Trazado_2007" d="M1860.557 240.848L1920 178.591v44.991l.344 26.1-.344 24.038-41.01-3.461z" class="cls-3" data-name="Trazado 2007"/>
        <path id="Rectángulo_1293" d="M0 0h1920.344v51.099H0z" class="cls-4" data-name="Rectángulo 1293" transform="translate(0 320.797)"/>
        <g id="Grupo_2426" data-name="Grupo 2426">
            <path id="Rectángulo_1294" d="M0 0h80.812v2.647H0z" class="cls-5" data-name="Rectángulo 1294" transform="translate(1732.735 298.615)"/>
            <path id="Trazado_2008" d="M1807.227 301.263l6.32 39.746-3.16.058-10.845-39.8z" class="cls-5" data-name="Trazado 2008"/>
            <path id="Trazado_2009" d="M1738.618 300.825l-3.683 41.008h2.955l7.948-39.3.416-2.928-7.636 1.225" class="cls-5" data-name="Trazado 2009"/>
            <path id="Trazado_2010" d="M1746.019 301.263l-.294 1.829-7.286-.271.14-1.558z" class="cls-6" data-name="Trazado 2010"/>
            <path id="Trazado_2011" d="M1807.227 301.263l.3 1.873-7.53-.209-.453-1.664z" class="cls-6" data-name="Trazado 2011"/>
        </g>
        <g id="Grupo_2427" class="cls-7" data-name="Grupo 2427">
            <path id="Rectángulo_1295" d="M0 0h18.915v18.915H0z" class="cls-8" data-name="Rectángulo 1295" transform="translate(713.467 61.05)"/>
            <path id="Rectángulo_1296" d="M0 0h18.915v18.915H0z" class="cls-9" data-name="Rectángulo 1296" transform="translate(749.947 142.115)"/>
            <path id="Rectángulo_1297" d="M0 0h18.915v18.915H0z" class="cls-9" data-name="Rectángulo 1297" transform="translate(713.467 86.045)"/>
            <path id="Rectángulo_1298" d="M0 0h18.915v18.915H0z" class="cls-10" data-name="Rectángulo 1298" transform="translate(684.419 86.045)"/>
            <path id="Rectángulo_1299" d="M0 0h18.915v18.915H0z" class="cls-9" data-name="Rectángulo 1299" transform="translate(740.489 86.045)"/>
            <path id="Rectángulo_1300" d="M0 0h18.915v18.915H0z" class="cls-9" data-name="Rectángulo 1300" transform="rotate(180 351.667 79.502)"/>
            <path id="Rectángulo_1301" d="M0 0h18.915v18.915H0z" class="cls-9" data-name="Rectángulo 1301" transform="rotate(180 379.702 64.978)"/>
            <path id="Rectángulo_1302" d="M0 0h18.915v18.915H0z" class="cls-11" data-name="Rectángulo 1302" transform="rotate(180 351.667 64.978)"/>
            <path id="Rectángulo_1303" d="M0 0h18.915v18.915H0z" class="cls-9" data-name="Rectángulo 1303" transform="translate(803.99 111.04)"/>
            <path id="Rectángulo_1304" d="M0 0h18.915v18.915H0z" class="cls-9" data-name="Rectángulo 1304" transform="translate(801.964 86.045)"/>
            <path id="Rectángulo_1305" d="M0 0h18.915v18.915H0z" class="cls-9" data-name="Rectángulo 1305" transform="rotate(180 423.95 64.978)"/>
            <path id="Rectángulo_1306" d="M0 0h18.915v18.915H0z" class="cls-9" data-name="Rectángulo 1306" transform="rotate(180 395.916 64.978)"/>
        </g>
        <g id="Grupo_2428" class="cls-7" data-name="Grupo 2428">
            <path id="Rectángulo_1307" d="M0 0h18.915v18.915H0z" class="cls-8" data-name="Rectángulo 1307" transform="rotate(180 619.111 63.289)"/>
            <path id="Rectángulo_1308" d="M0 0h18.915v18.915H0z" class="cls-8" data-name="Rectángulo 1308" transform="translate(1219.308 82.668)"/>
            <path id="Rectángulo_1309" d="M0 0h18.915v18.915H0z" class="cls-8" data-name="Rectángulo 1309" transform="rotate(180 587.361 50.792)"/>
            <path id="Rectángulo_1310" d="M0 0h18.915v18.915H0z" class="cls-8" data-name="Rectángulo 1310" transform="rotate(180 588.375 63.289)"/>
            <path id="Rectángulo_1311" d="M0 0h18.915v18.915H0z" class="cls-8" data-name="Rectángulo 1311" transform="translate(1130.812 82.668)"/>
            <path id="Rectángulo_1312" d="M0 0h18.915v18.915H0z" class="cls-8" data-name="Rectángulo 1312" transform="translate(1186.882 82.668)"/>
        </g>
        <g id="Grupo_2480" data-name="Grupo 2480">
            <g id="Grupo_2460" data-name="Grupo 2460">
                <g id="Grupo_2430" data-name="Grupo 2430">
                    <g id="Grupo_2429" data-name="Grupo 2429">
                        <path id="Trazado_2012" d="M822.563 287.185l-17.708 60.783h-2.023l13.586-60.988z" class="cls-5" data-name="Trazado 2012"/>
                        <path id="Trazado_2013" d="M854.574 288l13.388 59.043h-2.374l-17.92-59.061z" class="cls-5" data-name="Trazado 2013"/>
                        <path id="Trazado_2014" d="M838.775 286.98l-2.063 60.829h-2.829l-1.242-60.6z" class="cls-5" data-name="Trazado 2014"/>
                        <path id="Trazado_2015" d="M855.177 312.034l-40.437-1.267-.267 4.187 43.739 1.677z" class="cls-5" data-name="Trazado 2015"/>
                        <path id="Trazado_2016" d="M854.574 288l.621 2.734H848.5l-.836-2.753z" class="cls-6" data-name="Trazado 2016"/>
                        <path id="Trazado_2017" d="M838.749 287.774l-.1 2.96h-5.934l-.072-3.519z" class="cls-6" data-name="Trazado 2017"/>
                        <path id="Trazado_2018" d="M837.944 311.494l-.148 4.354h2.575l1-4.247-4.108-.107" class="cls-6" data-name="Trazado 2018"/>
                        <path id="Trazado_2019" d="M833.136 311.343v4.326l-1.951-.075-.566-4.331z" class="cls-6" data-name="Trazado 2019"/>
                    </g>
                    <path id="Trazado_2020" d="M822.563 287.185l-.633 2.172h-6.041l.529-2.378z" class="cls-6" data-name="Trazado 2020"/>
                </g>
                <path id="Trazado_2021" d="M868.487 283.288c-5.751-2.819-28.99-1.3-28.99-1.3s6.562-81.461-1.922-82.113-27.475-6.7-31.167 5.558 1.232 81.485 6.143 81.485c11.192 0 45.281 2.43 55.576.006 2.653-.624.36-3.636.36-3.636z" class="cls-12" data-name="Trazado 2021"/>
                <g id="Grupo_2431" data-name="Grupo 2431">
                    <path id="Trazado_2022" d="M813.717 206.84c-.036-.02-.2.2-.479.651-.146.221-.3.509-.475.852s-.367.746-.568 1.206a28.8 28.8 0 0 0-2 8.236 103.083 103.083 0 0 0-.341 12.524c.081 4.709.366 9.878.788 15.29s.948 10.555 1.438 15.228.957 8.894 1.615 12.4a53.154 53.154 0 0 0 2.121 8.184 11.959 11.959 0 0 0 1.253 2.836 21.626 21.626 0 0 0-.812-2.977 69.093 69.093 0 0 1-1.731-8.183c-.546-3.493-.931-7.693-1.354-12.372s-.914-9.817-1.343-15.215-.738-10.54-.878-15.223a119.055 119.055 0 0 1 .082-12.416 32.186 32.186 0 0 1 1.6-8.15c.647-1.852 1.174-2.822 1.084-2.871z" class="cls-13" data-name="Trazado 2022"/>
                </g>
                <path id="Trazado_2023" d="M835.338 168.616c-3.1-.3-5.833 2.161-7.369 4.874s-2.333 5.819-4.081 8.4c-1.651 2.441-4.046 4.262-6.1 6.371-3.929 4.026-6.722 9.463-6.45 15.082s4.157 11.2 9.664 12.353c5.558 1.166 11.372-2.426 14.005-7.457s2.552-11.113 1.155-16.617c-1.023-4.029-2.712-7.912-3.16-12.044s.66-8.793 4.091-11.138" class="cls-14" data-name="Trazado 2023"/>
                <path id="Trazado_2024" d="M956.371 214.806l-108.35-40.146L850 188.907l.513 25.9 42.612 31.9 23.909-.954z" class="cls-15" data-name="Trazado 2024"/>
                <path id="Trazado_2025" d="M848.58 169.731c2.992 1.538 4.2 5.2 4.5 8.548s.015 6.833 1.217 9.975c1.982 5.184 7.611 8.355 9.4 13.609a11.284 11.284 0 0 1-3 11.557 12.439 12.439 0 0 1-11.752 2.718c-4.862-1.4-8.536-5.619-10.4-10.321s-2.165-9.869-2.145-14.928c.019-4.7.332-9.555 2.429-13.762s6.381-7.636 11.077-7.4" class="cls-14" data-name="Trazado 2025"/>
                <path id="Trazado_2026" d="M898.3 237.46l2.113-1.132a22.013 22.013 0 0 0 3.583-1.834 6.5 6.5 0 0 0 1.533-1.3 9.893 9.893 0 0 0 1.454-2.036c.3-.7 1.262-.759 1.41-.122s-.619 2.588-2.4 4.332 1.967 1.221 3.333 1.055 5.6-.484 5.944-.108c.505.551-.047 1.251-1.412 1.385-1.382.136-5.458.825-5.4 1.535s7.007-.239 7.007-.239 1.476-.439 1.567.377c.166 1.474-7.248 1.934-7.953 1.961a.375.375 0 1 0 .07.747c.544-.049 6.927-1.1 7.11.4.141 1.148-6.1.436-7.371 1.38s4.833.053 4.921 1.159c.032.413 0 .73-3.533.741-3.617.008-13.276-1.561-13.276-1.561l1.4-6.841" class="cls-16" data-name="Trazado 2026"/>
                <g id="Grupo_2442" data-name="Grupo 2442">
                    <path id="Trazado_2027" d="M852.189 207.124s18.191 24.44 22.366 25.531 28.02 2.522 28.02 2.522l2.122 10.33s-30.526 1.612-37.249-3.35c-10.563-7.8-21.662-25.737-21.662-25.737-.28-5.92 1.979-8.871 6.403-9.296z" class="cls-17" data-name="Trazado 2027"/>
                    <g id="Grupo_2432" class="cls-18" data-name="Grupo 2432">
                        <path id="Trazado_2028" d="M869.68 243.556a6.136 6.136 0 0 0 .906-1.582 34.625 34.625 0 0 0 2.7-8.34 6.248 6.248 0 0 0 .2-1.812c-.14-.025-.68 2.689-1.736 5.921s-2.198 5.751-2.07 5.813z" class="cls-19" data-name="Trazado 2028"/>
                    </g>
                    <g id="Grupo_2433" class="cls-18" data-name="Grupo 2433">
                        <path id="Trazado_2029" d="M864.675 240.133a39.442 39.442 0 0 0 2.806-5.435 39.5 39.5 0 0 0 2.375-5.637 39.423 39.423 0 0 0-2.807 5.435 39.581 39.581 0 0 0-2.374 5.637z" class="cls-19" data-name="Trazado 2029"/>
                    </g>
                    <g id="Grupo_2434" class="cls-18" data-name="Grupo 2434">
                        <path id="Trazado_2030" d="M860.1 235.32a59.142 59.142 0 0 0 3.313-5.145 60.2 60.2 0 0 0 3.188-5.224 46.787 46.787 0 0 0-6.5 10.369z" class="cls-19" data-name="Trazado 2030"/>
                    </g>
                    <g id="Grupo_2435" class="cls-18" data-name="Grupo 2435">
                        <path id="Trazado_2031" d="M856.182 230.887a46.391 46.391 0 0 0 3.364-4.945 46.654 46.654 0 0 0 3.116-5.1 54.589 54.589 0 0 0-6.48 10.05z" class="cls-19" data-name="Trazado 2031"/>
                    </g>
                    <g id="Grupo_2436" class="cls-18" data-name="Grupo 2436">
                        <path id="Trazado_2032" d="M852.475 224.71a33.416 33.416 0 0 0 3.354-4.526 33.413 33.413 0 0 0 2.96-4.794 66.385 66.385 0 0 0-6.314 9.32z" class="cls-19" data-name="Trazado 2032"/>
                    </g>
                    <g id="Grupo_2437" class="cls-18" data-name="Grupo 2437">
                        <path id="Trazado_2033" d="M849.291 220.4c.132.058 1.137-2.134 2.8-4.575s3.312-4.2 3.209-4.3a20.207 20.207 0 0 0-6.009 8.872z" class="cls-19" data-name="Trazado 2033"/>
                    </g>
                    <g id="Grupo_2438" class="cls-18" data-name="Grupo 2438">
                        <path id="Trazado_2034" d="M876.463 245.2a38.982 38.982 0 0 0 .977-6 39.042 39.042 0 0 0 .505-6.054 38.783 38.783 0 0 0-.977 6 38.729 38.729 0 0 0-.505 6.054z" class="cls-19" data-name="Trazado 2034"/>
                    </g>
                    <g id="Grupo_2439" class="cls-18" data-name="Grupo 2439">
                        <path id="Trazado_2035" d="M884.382 245.6a38.227 38.227 0 0 0-.091-6.034 38.542 38.542 0 0 0-.568-6.009 38.167 38.167 0 0 0 .092 6.035 38.455 38.455 0 0 0 .567 6.008z" class="cls-19" data-name="Trazado 2035"/>
                    </g>
                    <g id="Grupo_2440" class="cls-18" data-name="Grupo 2440">
                        <path id="Trazado_2036" d="M893.125 245.7a34.411 34.411 0 0 0-.921-5.657 34.815 34.815 0 0 0-1.388-5.562 34.619 34.619 0 0 0 .922 5.658 34.688 34.688 0 0 0 1.387 5.561z" class="cls-19" data-name="Trazado 2036"/>
                    </g>
                    <g id="Grupo_2441" class="cls-18" data-name="Grupo 2441">
                        <path id="Trazado_2037" d="M898.719 246.711a52.913 52.913 0 0 0-2.081-12.037 51.817 51.817 0 0 0 .92 6.039 51.678 51.678 0 0 0 1.161 5.998z" class="cls-19" data-name="Trazado 2037"/>
                    </g>
                </g>
                <path id="Trazado_2038" d="M901.644 334.661l-1.155 9.068s10.734 3.383 8.173 3.987-20.124-1.927-20.124-1.927 1.188-11.105 1.058-11.1z" class="cls-20" data-name="Trazado 2038"/>
                <path id="Trazado_2039" d="M875.643 326.151l-5.608 7.219s7.519 8.374 5.007 7.591-16.343-11.9-16.343-11.9 6.672-8.956 6.561-9.021z" class="cls-20" data-name="Trazado 2039"/>
                <path id="Trazado_2040" d="M883.867 272.137l-23.686 49.919 15.049 8.471 24.609-44.708-1.551-14.719z" class="cls-21" data-name="Trazado 2040"/>
                <path id="Trazado_2041" d="M827.866 252.821s-10.134 21.658 9.849 29.091l10.662-23.174z" class="cls-22" data-name="Trazado 2041"/>
                <path id="Trazado_2042" d="M841.763 258.567s57.684-15.843 64.166-2.541S904.7 338.6 904.7 338.6l-18.054-1.9s3-60.825 0-62.963-44.565 8.365-48.928 8.175c-10.623-.463-18.137-20.276 4.045-23.345z" class="cls-22" data-name="Trazado 2042"/>
                <path id="Trazado_2043" d="M840.539 200.6a14.4 14.4 0 0 1 14.084 13.728c.289 6.293.56 14.012.59 21.377.017 4 6.777 20.794 6.777 20.794l-5.117.855a55.784 55.784 0 0 1-23.771-1.177l-5.82-1.576s-3.356-17.511-5.258-33.95c-1.588-13.739 1.032-19.07 9.362-20.246z" class="cls-23" data-name="Trazado 2043"/>
                <path id="Trazado_2044" d="M844.523 201.576a54.691 54.691 0 0 1 .169-6.943s5.1-.648 5.308-5.726-.348-16.768-.348-16.768l-9.409-4.361-10.087 7.976-.928 5.594 2.339 6.652 1.046 12.71z" class="cls-16" data-name="Trazado 2044"/>
                <path id="Trazado_2045" d="M844.692 194.633a12.665 12.665 0 0 1-6.767-2.13s1.6 3.692 6.683 3.377z" class="cls-24" data-name="Trazado 2045"/>
                <path id="Trazado_2046" d="M850.046 172.121c-1.827 1-4.452 1.921-6.483 1.463-1.226-.277-2.293-1.077-3.529-1.308-2.341-.437-4.636 1.36-5.584 3.544s-.614 3.455-.521 5.834c-1.62-1.605-3.1-.216-3.43.97-.411 1.487.744 4.334 3.3 3.79-.592 1.614-.248 12.887-1.559 14 0 0-4.179-15.39-4.176-20.823 0-4.994.906-13.055 12.768-12.9 8.859.116 9.214 5.43 9.214 5.43z" class="cls-25" data-name="Trazado 2046"/>
                <path id="Trazado_2047" d="M855.875 253.415l2.393-.141a22.032 22.032 0 0 0 4.022-.161 6.519 6.519 0 0 0 1.938-.541 9.891 9.891 0 0 0 2.174-1.238c.563-.513 1.464-.16 1.331.481s-1.647 2.089-3.992 2.927 1.274 1.934 2.584 2.356 5.285 1.91 5.441 2.4c.227.712-.568 1.116-1.864.666s-5.3-1.542-5.547-.873 6.46 2.721 6.46 2.721 1.523.221 1.265 1c-.469 1.407-7.391-1.284-8.042-1.555a.375.375 0 1 0-.251.707c.515.183 6.749 1.91 6.287 3.345-.354 1.1-5.719-2.163-7.27-1.84s4.365 2.076 3.98 3.118c-.143.387-.306.661-3.517-.81-3.289-1.507-11.4-6.981-11.4-6.981l4.139-5.624" class="cls-16" data-name="Trazado 2047"/>
                <path id="Trazado_2048" d="M849.717 172.076a12.8 12.8 0 0 1-8.242 4.549c-3.057.378-6.369-.326-9.093 1.113a7.053 7.053 0 0 1 3.109-6.6 10.677 10.677 0 0 1 7.357-1.557 22.614 22.614 0 0 1 7.248 2.451" class="cls-25" data-name="Trazado 2048"/>
                <g id="Grupo_2443" data-name="Grupo 2443">
                    <path id="Trazado_2049" d="M832.643 264.624a16.555 16.555 0 0 0 2.223-1.123 45.827 45.827 0 0 1 11.176-4.144 16.565 16.565 0 0 0 2.418-.6 9.563 9.563 0 0 0-2.49.244 33.648 33.648 0 0 0-11.28 4.182 9.482 9.482 0 0 0-2.047 1.441z" class="cls-26" data-name="Trazado 2049"/>
                </g>
                <g id="Grupo_2444" data-name="Grupo 2444">
                    <path id="Trazado_2050" d="M830.053 261.375c.039.148 1.729-.277 3.841-.2 2.113.061 3.77.6 3.821.456a9.217 9.217 0 0 0-7.662-.261z" class="cls-26" data-name="Trazado 2050"/>
                </g>
                <g id="Grupo_2445" data-name="Grupo 2445">
                    <path id="Trazado_2051" d="M861.99 323.075a2.158 2.158 0 0 0 .275-.47l.7-1.381 1.129-2.177 1.52-2.87 8.924-16.561c3.489-6.47 6.615-12.344 8.8-16.64l1.454-2.908c.408-.86.762-1.6 1.053-2.218s.479-1.1.616-1.426a2.169 2.169 0 0 0 .182-.512 2.192 2.192 0 0 0-.275.47c-.169.332-.4.794-.7 1.381l-1.129 2.176-1.519 2.871-8.926 16.564c-3.488 6.467-6.614 12.341-8.8 16.636l-1.454 2.909c-.409.86-.763 1.6-1.054 2.218s-.48 1.1-.617 1.426a2.188 2.188 0 0 0-.179.512z" class="cls-26" data-name="Trazado 2051"/>
                </g>
                <path id="Trazado_2052" d="M848.6 258.111s-13.576-3.867-18.544-9.948-5.65-10.319-5.65-10.319l-1.84-30.72z" class="cls-27" data-name="Trazado 2052"/>
                <path id="Trazado_2053" d="M853.494 208.777c.172.309 1.066 8.674 2.517 10.15s2.144 4.117-.971 6.534" class="cls-23" data-name="Trazado 2053"/>
                <path id="Trazado_2054" d="M956.371 214.806l-11.51 33.636h-52.12l.384-1.732 21.076-.652 9.708-31.27z" class="cls-28" data-name="Trazado 2054"/>
                <g id="Grupo_2446" data-name="Grupo 2446">
                    <path id="Trazado_2055" d="M830.619 278.967a1.727 1.727 0 0 0 .33-.056l.956-.216 3.667-.867c3.184-.753 7.794-1.834 13.51-3.075a619.854 619.854 0 0 1 32.102-6.097l3.143-.5a12.153 12.153 0 0 1 3.153-.192 4.224 4.224 0 0 1 2.733 1.317 6.865 6.865 0 0 1 1.469 2.818 20.289 20.289 0 0 1 .607 3.23q.2 1.637.407 3.253l.314 3.216c.107 1.064.161 2.123.245 3.17.276 4.2.414 8.25.408 12.115 0 7.729-.376 14.687-.774 20.521s-.816 10.552-1.089 13.812c-.131 1.625-.234 2.889-.3 3.757l-.066.977a1.665 1.665 0 0 0-.006.335 1.549 1.549 0 0 0 .058-.33l.117-.973.4-3.747c.333-3.256.8-7.968 1.25-13.805s.862-12.8.885-20.547c.018-3.874-.11-7.941-.381-12.148-.082-1.052-.135-2.115-.241-3.182s-.208-2.143-.312-3.227q-.2-1.621-.407-3.266a20.676 20.676 0 0 0-.622-3.3 7.332 7.332 0 0 0-1.587-3.023 4.711 4.711 0 0 0-1.4-1.025 5.1 5.1 0 0 0-1.652-.449 12.611 12.611 0 0 0-3.286.2l-3.146.508a537.485 537.485 0 0 0-11.96 2.1c-7.609 1.415-14.431 2.853-20.14 4.141s-10.308 2.422-13.479 3.236c-1.586.4-2.814.733-3.645.959l-.945.265a1.557 1.557 0 0 0-.316.095z" class="cls-26" data-name="Trazado 2055"/>
                </g>
                <path id="Trazado_2056" d="M844.523 201.576s4.754 9.036 2.051 9.036-14.338-10.2-14.338-10.2z" class="cls-16" data-name="Trazado 2056"/>
                <g id="Grupo_2456" data-name="Grupo 2456">
                    <path id="Trazado_2057" d="M832.842 202.192s2.161 30.39 5.09 33.557 22.249 17.22 22.249 17.22l-3.776 9.846s-26.588-15.088-29.578-22.889c-3.613-9.428-4.264-24.079-4.37-30.345a8.549 8.549 0 0 1 3.114-6.876c2.202-1.748 4.634-1.864 7.271-.513z" class="cls-17" data-name="Trazado 2057"/>
                    <g id="Grupo_2447" class="cls-18" data-name="Grupo 2447">
                        <path id="Trazado_2058" d="M822.59 207.876a58.935 58.935 0 0 0 10.557-.775 58.688 58.688 0 0 0-10.557.775z" class="cls-19" data-name="Trazado 2058"/>
                    </g>
                    <g id="Grupo_2448" class="cls-18" data-name="Grupo 2448">
                        <path id="Trazado_2059" d="M822.48 213.553a53.565 53.565 0 0 0 11.55-1.395 106.727 106.727 0 0 0-11.55 1.395z" class="cls-19" data-name="Trazado 2059"/>
                    </g>
                    <g id="Grupo_2449" class="cls-18" data-name="Grupo 2449">
                        <path id="Trazado_2060" d="M822.925 218.115a68.833 68.833 0 0 0 11.438 0 68.829 68.829 0 0 0-11.438 0z" class="cls-19" data-name="Trazado 2060"/>
                    </g>
                    <g id="Grupo_2450" class="cls-18" data-name="Grupo 2450">
                        <path id="Trazado_2061" d="M823.475 223.944a68.83 68.83 0 0 0 11.438 0 68.83 68.83 0 0 0-11.438 0z" class="cls-19" data-name="Trazado 2061"/>
                    </g>
                    <g id="Grupo_2451" class="cls-18" data-name="Grupo 2451">
                        <path id="Trazado_2062" d="M824.89 232.666a68.229 68.229 0 0 0 11.015-2.989 68.576 68.576 0 0 0-11.015 2.989z" class="cls-19" data-name="Trazado 2062"/>
                    </g>
                    <g id="Grupo_2452" class="cls-18" data-name="Grupo 2452">
                        <path id="Trazado_2063" d="M828.739 242.906c.1.091 1.873-1.862 4.224-4.091s4.385-3.9 4.3-4.015a32.869 32.869 0 0 0-8.524 8.106z" class="cls-19" data-name="Trazado 2063"/>
                    </g>
                    <g id="Grupo_2453" class="cls-18" data-name="Grupo 2453">
                        <path id="Trazado_2064" d="M835.264 248.8a36.145 36.145 0 0 0 3.671-4.576 36.178 36.178 0 0 0 3.287-4.86 72.5 72.5 0 0 0-6.958 9.436z" class="cls-19" data-name="Trazado 2064"/>
                    </g>
                    <g id="Grupo_2454" class="cls-18" data-name="Grupo 2454">
                        <path id="Trazado_2065" d="M842.493 253.523a37.591 37.591 0 0 0 5.652-9.71 53.846 53.846 0 0 0-2.873 4.828 53.514 53.514 0 0 0-2.779 4.882z" class="cls-19" data-name="Trazado 2065"/>
                    </g>
                    <g id="Grupo_2455" class="cls-18" data-name="Grupo 2455">
                        <path id="Trazado_2066" d="M849.429 258.916a49.044 49.044 0 0 0 2.671-5.016 48.583 48.583 0 0 0 2.5-5.1 42.317 42.317 0 0 0-5.171 10.117z" class="cls-19" data-name="Trazado 2066"/>
                    </g>
                </g>
                <g id="Grupo_2457" class="cls-29" data-name="Grupo 2457">
                    <path id="Trazado_2067" d="M839.425 226.984c-.036.076.435.411 1.338.563a5.009 5.009 0 0 0 5.574-3.513c.253-.88.155-1.449.069-1.45-.11-.01-.2.522-.542 1.274a5.3 5.3 0 0 1-5.056 3.186c-.826-.012-1.344-.163-1.383-.06z" class="cls-23" data-name="Trazado 2067"/>
                </g>
                <path id="Trazado_2068" d="M902.575 235.177l2.122 10.33-3.754.195-2.225-11.1z" class="cls-30" data-name="Trazado 2068"/>
                <path id="Trazado_2069" d="M933.149 231.917a2.184 2.184 0 1 0 2.73-2.031 2.434 2.434 0 0 0-2.73 2.031z" class="cls-31" data-name="Trazado 2069"/>
                <g id="Grupo_2458" data-name="Grupo 2458">
                    <path id="Trazado_2070" d="M818.063 284.151c.067.339 5.352-.491 11.905-1.016 6.555-.547 11.9-.586 11.914-.931.017-.312-5.374-.809-12.012-.256-6.635.532-11.876 1.899-11.807 2.203z" class="cls-13" data-name="Trazado 2070"/>
                </g>
                <g id="Grupo_2459" data-name="Grupo 2459">
                    <path id="Trazado_2071" d="M820.075 230.712c.053.042.246-.021.333-.352a1.212 1.212 0 0 0-.547-1.176 1.418 1.418 0 0 0-.966-.268 1.48 1.48 0 0 0-.559.189 1.642 1.642 0 0 0-.455.376 2.442 2.442 0 0 0 1.332 3.86 1.741 1.741 0 0 0 .579.022 1.519 1.519 0 0 0 .555-.178 1.607 1.607 0 0 0 .642-.7 1.281 1.281 0 0 0-.029-1.275c-.2-.259-.387-.268-.428-.211-.057.066 0 .2 0 .388a1.025 1.025 0 0 1-.266.666.85.85 0 0 1-.358.251.6.6 0 0 1-.2.019.806.806 0 0 1-.242-.045 1.472 1.472 0 0 1-.842-.9 1.448 1.448 0 0 1 .11-1.211.539.539 0 0 1 .694-.257.9.9 0 0 1 .513.452c.075.152.059.304.134.35z" class="cls-13" data-name="Trazado 2071"/>
                </g>
            </g>
            <g id="Grupo_2479" data-name="Grupo 2479">
                <path id="Trazado_2072" d="M1027.333 323.542l5.525 7.113s-7.408 8.25-4.934 7.478 16.1-11.721 16.1-11.721-6.573-8.824-6.464-8.889z" class="cls-20" data-name="Trazado 2072"/>
                <path id="Trazado_2073" d="M1019.231 270.326l23.336 49.182-14.827 8.346-24.245-44.048 1.528-14.5z" class="cls-32" data-name="Trazado 2073"/>
                <g id="Grupo_2461" class="cls-33" data-name="Grupo 2461">
                    <path id="Trazado_2074" d="M1040.784 320.511a2.125 2.125 0 0 1-.271-.462c-.166-.328-.4-.783-.691-1.361l-1.113-2.144-1.5-2.829-8.793-16.316c-3.437-6.374-6.517-12.162-8.668-16.394l-1.432-2.866-1.038-2.185c-.274-.605-.473-1.082-.607-1.4a.269.269 0 1 1 .092-.042l.691 1.362 1.113 2.143 1.5 2.829c2.258 4.19 5.363 9.953 8.8 16.319s6.515 12.159 8.666 16.391l1.432 2.866L1040 318.6c.274.606.473 1.082.607 1.4a2.126 2.126 0 0 1 .177.511z" class="cls-34" data-name="Trazado 2074"/>
                </g>
                <path id="Trazado_2075" d="M1015.431 305.491l1.062 1.929 4.26-33.887-1.048-2.224-3.894-.114-1.524 16z" class="cls-35" data-name="Trazado 2075"/>
                <g id="Grupo_2463" data-name="Grupo 2463">
                    <g id="Grupo_2462" data-name="Grupo 2462">
                        <path id="Trazado_2076" d="M1079.63 285.62l17.446 59.886h1.994l-13.387-60.088z" class="cls-5" data-name="Trazado 2076"/>
                        <path id="Trazado_2077" d="M1048.113 285.916l-13.284 58.58h2.357l17.779-58.6z" class="cls-5" data-name="Trazado 2077"/>
                        <path id="Trazado_2078" d="M1063.656 284.564l2.033 59.932h2.787l1.223-59.7z" class="cls-5" data-name="Trazado 2078"/>
                        <path id="Trazado_2079" d="M1047.5 309.633l39.839-1.248.263 4.125-43.093 1.653z" class="cls-5" data-name="Trazado 2079"/>
                        <path id="Trazado_2080" d="M1048.091 285.9l-.611 3.031h6.592l.823-3.031z" class="cls-36" data-name="Trazado 2080"/>
                        <path id="Trazado_2081" d="M1063.683 286.013l.1 2.916h5.846l.071-3.468z" class="cls-36" data-name="Trazado 2081"/>
                        <path id="Trazado_2082" d="M1064.475 308.886l.146 4.29h-2.536l-.986-4.184 4.047-.106" class="cls-36" data-name="Trazado 2082"/>
                        <path id="Trazado_2083" d="M1069.611 308.953v4.262l1.923-.074.558-4.266z" class="cls-36" data-name="Trazado 2083"/>
                    </g>
                    <path id="Trazado_2084" d="M1079.63 284.768l.624 2.14h5.952l-.522-2.343z" class="cls-36" data-name="Trazado 2084"/>
                </g>
                <path id="Trazado_2085" d="M1034.383 281.312c5.666-2.777 28.562-1.281 28.562-1.281s-6.465-80.258 1.894-80.9 27.293-6.661 30.708 5.476c3.588 12.755-1.263 80.943-6.053 80.282-10.924-1.508-44.613 2.394-54.756.006-2.614-.617-.355-3.583-.355-3.583z" class="cls-37" data-name="Trazado 2085"/>
                <g id="Grupo_2464" class="cls-38" data-name="Grupo 2464">
                    <path id="Trazado_2086" d="M1088.345 205.992c.035-.019.2.2.472.642a9.344 9.344 0 0 1 .467.839c.184.334.362.735.56 1.189a28.319 28.319 0 0 1 1.974 8.113 101.777 101.777 0 0 1 .336 12.34c-.08 4.64-.361 9.733-.777 15.064s-.934 10.4-1.416 15-.943 8.763-1.592 12.223a52.318 52.318 0 0 1-2.089 8.062 11.79 11.79 0 0 1-1.235 2.795 21.413 21.413 0 0 1 .8-2.933 67.836 67.836 0 0 0 1.706-8.062c.538-3.442.917-7.58 1.334-12.19s.9-9.672 1.323-14.99.727-10.385.865-15a117.5 117.5 0 0 0-.081-12.233 31.8 31.8 0 0 0-1.574-8.029c-.643-1.822-1.162-2.781-1.073-2.83z" class="cls-39" data-name="Trazado 2086"/>
                </g>
                <path id="Trazado_2087" d="M1003.532 234.847l-2.082-1.115a21.645 21.645 0 0 1-3.53-1.807 6.378 6.378 0 0 1-1.51-1.285 9.712 9.712 0 0 1-1.434-2.006c-.29-.691-1.243-.748-1.389-.12s.611 2.55 2.361 4.268-1.939 1.2-3.285 1.04-5.516-.477-5.855-.107c-.5.543.045 1.232 1.391 1.365 1.361.134 5.377.812 5.322 1.513s-6.9-.237-6.9-.237-1.454-.433-1.545.372c-.163 1.452 7.141 1.906 7.835 1.932a.37.37 0 1 1-.068.736c-.536-.048-6.825-1.081-7.005.394-.139 1.131 6.009.429 7.262 1.359s-4.761.052-4.848 1.143c-.032.406 0 .719 3.481.73 3.564.011 13.076-1.534 13.076-1.534l-1.377-6.741" class="cls-40" data-name="Trazado 2087"/>
                <g id="Grupo_2465" data-name="Grupo 2465">
                    <path id="Trazado_2088" d="M1050.441 206.273s-17.923 24.079-22.035 25.153-27.607 2.486-27.607 2.486l-2.092 10.177s30.077 1.587 36.7-3.3c10.408-7.683 21.342-25.356 21.342-25.356.276-5.833-1.949-8.742-6.308-9.16z" class="cls-41" data-name="Trazado 2088"/>
                </g>
                <path id="Trazado_2089" d="M1001.715 332.349l1.138 8.934s-10.575 3.334-8.052 3.928 19.827-1.9 19.827-1.9-1.17-10.941-1.043-10.941z" class="cls-20" data-name="Trazado 2089"/>
                <path id="Trazado_2090" d="M1074.4 251.295s9.985 21.338-9.7 28.661l-10.5-22.831z" class="cls-42" data-name="Trazado 2090"/>
                <path id="Trazado_2091" d="M1060.712 256.956s-56.832-15.609-63.218-2.5 1.213 81.354 1.213 81.354l17.788-1.87s-2.958-59.928 0-62.034 43.908 8.241 48.207 8.054c10.463-.46 17.865-19.98-3.99-23.004z" class="cls-42" data-name="Trazado 2091"/>
                <path id="Trazado_2092" d="M1061.919 199.84a14.188 14.188 0 0 0-13.876 13.525c-.286 6.2.327 14.712-1.367 22.184-.871 3.846-5.892 19.364-5.892 19.364l5.043.843a54.959 54.959 0 0 0 23.418-1.16l5.736-1.553s3.306-17.252 5.179-33.449c1.565-13.535-1.016-18.788-9.223-19.946z" class="cls-41" data-name="Trazado 2092"/>
                <path id="Trazado_2093" d="M1057.993 200.806a53.775 53.775 0 0 0-.166-6.841s-5.028-.638-5.23-5.641.343-16.521.343-16.521l9.271-4.3 9.937 7.858.916 5.512-2.306 6.55-1.03 12.522z" class="cls-16" data-name="Trazado 2093"/>
                <path id="Trazado_2094" d="M1057.827 193.965a12.472 12.472 0 0 0 6.667-2.1s-1.577 3.638-6.584 3.327z" class="cls-43" data-name="Trazado 2094"/>
                <path id="Trazado_2095" d="M1046.81 251.88l-2.358-.139a21.587 21.587 0 0 1-3.963-.159 6.377 6.377 0 0 1-1.909-.533 9.7 9.7 0 0 1-2.143-1.219c-.554-.506-1.442-.158-1.311.473s1.624 2.059 3.933 2.884-1.255 1.906-2.546 2.322-5.207 1.881-5.36 2.359c-.224.7.559 1.1 1.836.656 1.292-.449 5.221-1.518 5.466-.86s-6.365 2.681-6.365 2.681-1.5.218-1.246.986c.461 1.386 7.281-1.266 7.923-1.533a.37.37 0 1 1 .246.7c-.506.18-6.649 1.881-6.193 3.3.349 1.085 5.634-2.131 7.162-1.813s-4.3 2.045-3.921 3.071c.141.382.3.652 3.466-.8 3.24-1.485 11.226-6.878 11.226-6.878l-4.077-5.541" class="cls-16" data-name="Trazado 2095"/>
                <g id="Grupo_2466" class="cls-44" data-name="Grupo 2466">
                    <path id="Trazado_2096" d="M1069.7 262.923a16.325 16.325 0 0 1-2.19-1.107 45.183 45.183 0 0 0-11.012-4.082 16.565 16.565 0 0 1-2.382-.589 9.421 9.421 0 0 1 2.453.24 33.138 33.138 0 0 1 11.114 4.121 9.442 9.442 0 0 1 2.017 1.417z" class="cls-34" data-name="Trazado 2096"/>
                </g>
                <g id="Grupo_2467" class="cls-44" data-name="Grupo 2467">
                    <path id="Trazado_2097" d="M1072.251 259.723c-.04.146-1.7-.274-3.786-.192-2.081.06-3.714.592-3.763.449a9.067 9.067 0 0 1 7.549-.257z" class="cls-34" data-name="Trazado 2097"/>
                </g>
                <path id="Trazado_2098" d="M1053.98 256.507s11.167-3.189 18.271-9.8c5.663-5.272 5.566-10.167 5.566-10.167l2.67-20.5z" class="cls-45" data-name="Trazado 2098"/>
                <g id="Grupo_2468" class="cls-33" data-name="Grupo 2468">
                    <path id="Trazado_2099" d="M1071.693 277.055a1.666 1.666 0 0 1-.326-.056l-.942-.212-3.613-.854c-3.137-.743-7.678-1.807-13.31-3.03s-12.355-2.6-19.85-3.973a607.126 607.126 0 0 0-11.779-2.034l-3.1-.495a12.017 12.017 0 0 0-3.107-.189 4.166 4.166 0 0 0-2.692 1.3 6.748 6.748 0 0 0-1.447 2.776 19.818 19.818 0 0 0-.6 3.182q-.2 1.614-.4 3.205l-.31 3.169c-.106 1.048-.159 2.091-.241 3.123a176.085 176.085 0 0 0-.4 11.936c0 7.615.372 14.47.764 20.219s.8 10.4 1.072 13.608l.3 3.7.066.964a1.708 1.708 0 0 1 .006.33 1.593 1.593 0 0 1-.057-.325l-.115-.959-.394-3.692c-.328-3.207-.786-7.851-1.232-13.6s-.849-12.612-.872-20.244c-.017-3.816.108-7.823.375-11.969.08-1.035.132-2.082.237-3.134s.205-2.112.308-3.179q.2-1.6.4-3.218a20.27 20.27 0 0 1 .612-3.256 7.247 7.247 0 0 1 1.564-2.979 4.669 4.669 0 0 1 1.376-1.009 4.993 4.993 0 0 1 1.627-.442 12.428 12.428 0 0 1 3.239.2l3.1.5c4.095.672 8.036 1.367 11.784 2.065 7.5 1.395 14.217 2.811 19.842 4.081s10.157 2.386 13.281 3.187c1.563.4 2.772.722 3.591.946l.93.26a1.584 1.584 0 0 1 .313.098z" class="cls-34" data-name="Trazado 2099"/>
                </g>
                <g id="Grupo_2469" class="cls-33" data-name="Grupo 2469">
                    <path id="Trazado_2100" d="M1016.659 271.753c-.094.1-.986-.559-1.993-1.478l-.364-.339.346-.35c.75.839 1.252 1.526 1.163 1.609s-.739-.466-1.523-1.273l.346-.35.371.332c1.007.918 1.747 1.746 1.654 1.849z" class="cls-34" data-name="Trazado 2100"/>
                </g>
                <g id="Grupo_2470" class="cls-33" data-name="Grupo 2470">
                    <path id="Trazado_2101" d="M1016.95 271.761a10.069 10.069 0 1 1-.211-2.24 5.2 5.2 0 0 1 .211 2.24z" class="cls-34" data-name="Trazado 2101"/>
                </g>
                <path id="Trazado_2102" d="M1069.5 201.412s-2.129 29.942-5.014 33.063-21.92 16.965-21.92 16.965l3.72 9.7s26.2-14.864 29.141-22.551c3.56-9.289 4.2-23.723 4.306-29.9a8.424 8.424 0 0 0-3.067-6.774c-2.166-1.715-4.566-1.833-7.166-.503z" class="cls-41" data-name="Trazado 2102"/>
                <g id="Grupo_2471" class="cls-38" data-name="Grupo 2471">
                    <path id="Trazado_2103" d="M1084.063 282.163c-.066.333-5.272-.485-11.729-1-6.458-.539-11.726-.577-11.738-.917-.017-.307 5.3-.8 11.833-.252 6.539.522 11.701 1.869 11.634 2.169z" class="cls-39" data-name="Trazado 2103"/>
                </g>
                <g id="Grupo_2472" class="cls-38" data-name="Grupo 2472">
                    <path id="Trazado_2104" d="M1082.081 229.512c-.053.042-.243-.021-.329-.346a1.2 1.2 0 0 1 .54-1.16 1.4 1.4 0 0 1 .951-.264 1.461 1.461 0 0 1 .551.187 1.61 1.61 0 0 1 .448.371 2.336 2.336 0 0 1 .369 2.26 2.363 2.363 0 0 1-1.681 1.542 1.747 1.747 0 0 1-.571.022 1.515 1.515 0 0 1-.546-.175 1.591 1.591 0 0 1-.633-.694 1.263 1.263 0 0 1 .029-1.256c.192-.255.381-.264.422-.208.056.065 0 .2 0 .382a1.006 1.006 0 0 0 .261.656.841.841 0 0 0 .352.248.571.571 0 0 0 .193.018.774.774 0 0 0 .238-.044 1.454 1.454 0 0 0 .83-.884 1.432 1.432 0 0 0-.108-1.194.528.528 0 0 0-.683-.253.89.89 0 0 0-.506.445c-.069.152-.055.302-.127.347z" class="cls-39" data-name="Trazado 2104"/>
                </g>
                <g id="Grupo_2473" data-name="Grupo 2473">
                    <path id="Trazado_2105" d="M1068.476 210.883a6.818 6.818 0 0 1 .113 1.939 76.3 76.3 0 0 1-.191 5.275 49.675 49.675 0 0 1-1.112 7.785 28 28 0 0 1-3.671 8.963 30.307 30.307 0 0 1-6.685 7c-2.335 1.831-4.548 3.294-6.375 4.553-3.681 2.477-5.777 4.236-5.884 4.123-.045-.05.418-.565 1.34-1.409s2.329-1.983 4.111-3.319 3.941-2.865 6.2-4.7a31.072 31.072 0 0 0 6.413-6.823 28.489 28.489 0 0 0 3.608-8.615 57.606 57.606 0 0 0 1.314-7.625c.475-4.403.653-7.156.819-7.147z" class="cls-46" data-name="Trazado 2105"/>
                </g>
                <path id="Trazado_2106" d="M1062.415 201.544l.392-4.445 7.265-1.34 2.179 4.75z" class="cls-46" data-name="Trazado 2106"/>
                <path id="Trazado_2107" d="M1057.827 196.56l2.862.539v4.445l-3.623-.738.879-5.047" class="cls-46" data-name="Trazado 2107"/>
                <g id="Grupo_2474" data-name="Grupo 2474">
                    <path id="Trazado_2108" d="M1050.809 245.983a2.078 2.078 0 0 1 .118-.463l.413-1.3c.372-1.125.9-2.756 1.53-4.776 1.267-4.039 2.9-9.656 4.414-15.935s2.6-12.03 3.311-16.2c.355-2.086.628-3.778.808-4.949l.223-1.345a2.076 2.076 0 0 1 .1-.466 2.111 2.111 0 0 1-.024.476l-.147 1.357a137.13 137.13 0 0 1-.68 4.973c-.635 4.192-1.689 9.959-3.2 16.253s-3.2 11.907-4.537 15.928a136.498 136.498 0 0 1-1.653 4.74l-.487 1.275a2.085 2.085 0 0 1-.189.432z" class="cls-46" data-name="Trazado 2108"/>
                </g>
                <g id="Grupo_2475" data-name="Grupo 2475">
                    <path id="Trazado_2109" d="M1047.406 231.268a12.271 12.271 0 0 1 .319-2.029c.228-1.244.52-2.965.757-4.877s.37-3.654.451-4.916a12.212 12.212 0 0 1 .184-2.045 8.873 8.873 0 0 1 .105 2.056 44.907 44.907 0 0 1-1.215 9.842 8.845 8.845 0 0 1-.601 1.969z" class="cls-46" data-name="Trazado 2109"/>
                </g>
                <path id="Trazado_2110" d="M998.707 244.089l2.092-10.177 4.009-.255-2.222 10.679z" class="cls-47" data-name="Trazado 2110"/>
                <path id="Trazado_2111" d="M1046.287 261.141l-4.1-10.613 3.824-1.414 3.455 10.162z" class="cls-47" data-name="Trazado 2111"/>
                <g id="Grupo_2477" data-name="Grupo 2477">
                    <g id="Grupo_2476" data-name="Grupo 2476">
                        <path id="Rectángulo_1313" d="M0 0h239.459v5.997H0z" class="cls-48" data-name="Rectángulo 1313" transform="translate(877.71 248.867)"/>
                        <path id="Trazado_2112" d="M890.171 254.885l-14.317 90.036 7.159.131 24.568-90.167z" class="cls-48" data-name="Trazado 2112"/>
                        <path id="Trazado_2113" d="M1103.841 253.872l8.343 92.895h-6.695l-18.005-89.036-.942-6.632 17.3 2.773" class="cls-48" data-name="Trazado 2113"/>
                        <path id="Trazado_2114" d="M1087.077 254.864l.665 4.143 16.505-.614-.317-3.529z" class="cls-36" data-name="Trazado 2114"/>
                        <path id="Trazado_2115" d="M890.171 254.885l-.675 4.243 17.057-.474 1.027-3.769z" class="cls-36" data-name="Trazado 2115"/>
                    </g>
                </g>
                <g id="Grupo_2478" data-name="Grupo 2478">
                    <path id="Trazado_2116" d="M964.7 215.082l96.956-40.423 7.845 14.906-.505 25.517-41.983 31.433-23.556-.939z" class="cls-49" data-name="Trazado 2116"/>
                    <path id="Trazado_2117" d="M964.525 215.55l11.4 33.323h51.634l-.381-1.716-20.879-.646-9.619-30.979z" class="cls-50" data-name="Trazado 2117"/>
                    <path id="Trazado_2118" d="M987.406 231.688a2.369 2.369 0 0 1-1.306 2.987 2.276 2.276 0 0 1-2.541-1.958 2.369 2.369 0 0 1 1.307-2.987 2.276 2.276 0 0 1 2.54 1.958z" class="cls-50" data-name="Trazado 2118"/>
                </g>
                <path id="Trazado_2119" d="M1068.043 182.909a.883.883 0 0 0 .878.588 1.813 1.813 0 0 0 1.035-.428 3.048 3.048 0 0 0 1.223-1.977 2.092 2.092 0 0 0-.936-2.051 1.6 1.6 0 0 0-2.106.463z" class="cls-16" data-name="Trazado 2119"/>
                <path id="Trazado_2120" d="M1072.479 184.453a35.944 35.944 0 0 0-1.917 6.538c-.653 1.211-.871-2.6-.871-2.6s-.559-3.668-.052-5.1c0 0 2.233.723 2.735-3.282a1.8 1.8 0 0 0-3.554-.533l-1.865.172s-.151-7.481-4.45-6.1c0 0-3.117 1.924-4.975.746s-1.725-1.584-1.725-1.584-.894 1.967-3.291.675-2.712-3.6-1.881-4.7c.48-.637.946-1.346 1.731-1.488a2.3 2.3 0 0 1 2.142.788 2.044 2.044 0 0 1 .7-2.718 3.335 3.335 0 0 1 3.006-.143 9.878 9.878 0 0 1 2.59 1.726 3.806 3.806 0 0 1 7.346.6 3.317 3.317 0 0 1 3.924-.755 4.613 4.613 0 0 1 2.4 3.388 7.739 7.739 0 0 1-.593 4.214 2.442 2.442 0 0 1 3.066.776 3.332 3.332 0 0 1 .188 3.3 5.34 5.34 0 0 1-2.448 2.368 2.114 2.114 0 0 1-2 3.648" class="cls-51" data-name="Trazado 2120"/>
            </g>
        </g>
        <g id="Grupo_2481" data-name="Grupo 2481">
            <path id="Trazado_2121" d="M739.7 325.471s11.71 3.7 27.734 0c0 0 3.082-.616 1.849 3.7l-4.314 16.024s.616.616-1.849 1.849h-17.869s-3.081.616-3.081-2.466l-4.314-17.256s-.617-1.851 1.844-1.851z" class="cls-52" data-name="Trazado 2121"/>
            <path id="Trazado_2122" d="M736.623 325.471s-10.477-1.233-14.175-12.942c0 0-1.849-9.245 8.012-10.477 0 0 4.93 0 7.4 5.546 0 0 4.93 2.465 3.7-4.314 0 0-1.232-3.7-8.012-6.779 0 0-5.546-4.931-1.232-9.861 0 0 1.849-4.314 8.628-1.849 0 0 1.849 3.082 3.7 3.7 0 0 2.465 1.232 1.849-3.7 0 0-1.233-9.861 1.849-14.175 0 0 3.081-4.93 8.012-2.465a7.288 7.288 0 0 1 3.081 8.012s-2.465 6.163-1.232 9.244c0 0 1.848 2.466 4.93-2.465 0 0 3.7-6.163 9.245-3.081 0 0 4.93 2.465 2.465 9.244 0 0 0 5.547-7.4 8.628s-8.936 2.774-8.936 6.472c0 0 2.465 4.93 11.093-1.233 0 0 9.245-4.93 12.326.616 0 0 4.314 3.7.617 11.094 0 0-8.27 11.773-20.159 11.741-.005 0-19.29 1.817-25.761-.956z" class="cls-53" data-name="Trazado 2122"/>
        </g>
        <g id="Grupo_2482" data-name="Grupo 2482">
            <rect id="Rectángulo_1314" width="9.812" height="4.163" class="cls-54" data-name="Rectángulo 1314" rx="2.082" transform="translate(1757.818 281.22)"/>
            <path id="Trazado_2123" d="M1757.852 290.478l.6 8.137h7.781l.829-7.277z" class="cls-55" data-name="Trazado 2123"/>
            <path id="Trazado_2124" d="M1757.327 283.3l.711 9.717 8.856.343 1.226-10.061z" class="cls-56" data-name="Trazado 2124"/>
        </g>
        <g id="Grupo_2490" data-name="Grupo 2490">
            <g id="Grupo_2489" class="cls-57" data-name="Grupo 2489">
                <g id="Grupo_2488" data-name="Grupo 2488">
                    <path id="Trazado_2125" d="M1911.847 198.506c-.7 1.543-.391 3.326-.187 5.006s.234 3.562-.857 4.856c-1.078 1.276-2.917 1.585-4.259 2.581a4.989 4.989 0 0 0-1.968 4.266c.076 1.125.5 2.392-.184 3.286a3.037 3.037 0 0 1-1.484.882 28.992 28.992 0 0 0-3.556 1.312 5.838 5.838 0 0 0-2.736 2.529c-.78 1.6-.452 3.506-.027 5.238.421 1.713 1.017 3.543 2.471 4.542a6.977 6.977 0 0 0 3.794.928 32.06 32.06 0 0 0 11.378-1.745 13.353 13.353 0 0 0 6.115-3.78c2.423-2.94 2.565-7.111 2.253-10.908a11.867 11.867 0 0 0-1.75-6.09 8.248 8.248 0 0 0-5.365-3.078c-2.087-.349-1.571-10.271-3.638-9.825" class="cls-58" data-name="Trazado 2125"/>
                    <path id="Trazado_2126" d="M1928.086 212.023a13.916 13.916 0 0 0-1.3-18.259" class="cls-59" data-name="Trazado 2126"/>
                    <path id="Trazado_2127" d="M1877.923 297.835l-7.891 39.78h3.664l12.286-35.472z" class="cls-48" data-name="Trazado 2127"/>
                    <path id="Trazado_2128" d="M1937.1 298.2l10.41 38.729h3.549l-4.575-44.99z" class="cls-60" data-name="Trazado 2128"/>
                    <path id="Trazado_2129" d="M1869.4 290.592c10.373 11.323 26.357 16.8 41.671 15.662s29.827-8.483 40.921-19.1 18.915-24.346 23.915-38.865c1.705-4.951 3.111-10.1 2.977-15.338s-1.982-10.612-5.9-14.083c-7.008-6.2-18.073-4.5-26.381-.2a53.963 53.963 0 0 0-25.13 27.893c-2.321 5.91-3.58 12.213-6.157 18.017s-6.849 11.307-12.9 13.236c-4.248 1.354-8.848.8-13.244.047s-8.865-1.676-13.275-1.021-14.763 2.613-6.5 13.748" class="cls-37" data-name="Trazado 2129"/>
                    <path id="Trazado_2130" d="M1905.211 266.519s-45.692-12.868-54.7 2.125-13.682 60.179-13.682 60.179l10.112 3.244s14.972-50.693 20.466-52.378 41.145 3.936 41.145 3.936z" class="cls-43" data-name="Trazado 2130"/>
                    <path id="Trazado_2131" d="M1836.831 328.823s-10.531-.781-8.509.634 18.209 5.315 18.209 5.315l.443-3.022z" class="cls-41" data-name="Trazado 2131"/>
                    <path id="Trazado_2132" d="M1874.489 268.238l2.134-8.072c11.447 1 23.261 4.585 35.183 8.933z" class="cls-34" data-name="Trazado 2132"/>
                    <path id="Trazado_2133" d="M1913.478 224.106s-8.5-1.287-11.431 13.363c-4.232 21.12-28.2 7.683-28.2 7.683l-7.783 4.882s12.675 15.153 31.756 8.555 15.658-34.483 15.658-34.483z" class="cls-61" data-name="Trazado 2133"/>
                    <path id="Trazado_2134" d="M1934.834 241.5l.286 11.089.961 20.739c-7.672 3.593-18.263 2.651-28.888 3.5 3.415-9.929 5.1-20 2.357-30.442 0 0-3.739-2.342-1.763-4.686a15.95 15.95 0 0 0 3.169-5.58l23.012 2.153" class="cls-41" data-name="Trazado 2134"/>
                    <g id="Grupo_2483" data-name="Grupo 2483">
                        <path id="Trazado_2135" d="M1916.956 223.742a49.093 49.093 0 0 0-.229-6.253s-4.605-.527-4.846-5.1.128-15.112.128-15.112l8.43-4.033 8.144 7.051-.561 22.866z" class="cls-61" data-name="Trazado 2135"/>
                        <path id="Trazado_2136" d="M1916.727 217.489a11.419 11.419 0 0 0 6.074-1.994s-1.4 3.344-5.984 3.116z" class="cls-43" data-name="Trazado 2136"/>
                        <path id="Trazado_2137" d="M1928.393 207.191a2.051 2.051 0 0 0 2.922-1.274 1.448 1.448 0 0 0-.1-1.1 1.489 1.489 0 0 0-1.3-.654 4.4 4.4 0 0 0-1.476.342" class="cls-40" data-name="Trazado 2137"/>
                    </g>
                    <path id="Trazado_2138" d="M1935.626 273.261s1.063 22.2-17.47 22.825l4.438-25.475z" class="cls-34" data-name="Trazado 2138"/>
                    <path id="Trazado_2139" d="M1914.6 272.053s-58.786-9.51-64.626 2.476-.547 62.4-.547 62.4l11.441-.992s2.008-47.195 4.714-49.121 50.338 9.334 54.236 8.79c4.358-.611 19.499-17.815-5.218-23.553z" class="cls-61" data-name="Trazado 2139"/>
                    <path id="Trazado_2140" d="M1850.418 336.052s-10.266 2.469-7.909 3.2 18.189-.439 18.189-.439l.38-4.266z" class="cls-41" data-name="Trazado 2140"/>
                    <path id="Trazado_2141" d="M1874.4 245.5l-1.652-1.412a18.527 18.527 0 0 1-2.825-2.315 5.326 5.326 0 0 1-1.069-1.462 8.125 8.125 0 0 1-.8-2.111.7.7 0 0 0-1.272-.367c-.309.551-.122 2.458 1.054 4.363s-2.151.748-3.371.348-5.054-1.46-5.474-1.182c-.616.407-.294 1.142.935 1.513s4.831 1.743 4.589 2.377-6.423-1.5-6.423-1.5-1.248-.667-1.552.057c-.55 1.305 6.191 3.075 6.836 3.228.449.106.21.8-.265.665-.49-.144-6.12-2.259-6.691-.936-.439 1.016 5.53 1.508 6.454 2.6s-4.488-.834-4.868.153c-.141.368-.2.662 3.072 1.316 3.347.67 12.709 1.01 12.709 1.01l.545-6.456" class="cls-61" data-name="Trazado 2141"/>
                    <path id="Trazado_2142" d="M1910.853 237.295l1.153-13.125 3.562-.793 11.066-.582s6.757-.5 9.09 1.588-.071 16.974-.071 16.974z" class="cls-41" data-name="Trazado 2142"/>
                    <path id="Trazado_2143" d="M1930.506 222.822s14.183-2.982 12.844 20.94c-1.364 24.362-38.3 28.052-38.3 28.052l-.74-9.136s26.564-7.187 28.563-17.315-2.367-22.541-2.367-22.541z" class="cls-61" data-name="Trazado 2143"/>
                    <path id="Trazado_2144" d="M1875.121 269.595l-13.986-30.017 1.8-1.025 14.219 29.108 25.066-1.99.245 1.695z" class="cls-62" data-name="Trazado 2144"/>
                    <path id="Trazado_2146" d="M1910.726 199.689s-.683-7.32 9.423-8.492 10.211 11.018 10.211 11.018l-5.495-1.111-1.2-3.149-.209 3.008-4.111-.352.278-2.207-1.2 1.724z" class="cls-58" data-name="Trazado 2146"/>
                    <path id="Trazado_2147" d="M1905.213 262.678s-4.1.083-6.311-2.87-3.014.122-.591 2.87a16.1 16.1 0 0 0 3.595 3.366s-13.5 3.4-10.678 3.581 15.755 1.525 15.755 1.525z" class="cls-61" data-name="Trazado 2147"/>
                    <path id="Trazado_2148" d="M1873.8 289.51l-2-21.035s49.821-1.791 56.6 4.486 3.022 24.287-10.248 23.125-44.352-6.576-44.352-6.576z" class="cls-63" data-name="Trazado 2148"/>
                    <g id="Grupo_2484" data-name="Grupo 2484">
                        <path id="Trazado_2149" d="M1928.688 243.931c.039.034-.27.453-1.013.788a3.731 3.731 0 0 1-5.12-2.373c-.224-.784-.1-1.29-.053-1.283.078 0 .084.485.368 1.173a3.7 3.7 0 0 0 4.686 2.172c.708-.228 1.084-.538 1.132-.477z" class="cls-64" data-name="Trazado 2149"/>
                    </g>
                    <path id="Trazado_2150" d="M1937.1 298.2l1.21 4.5 8.7-5.562-.529-5.2z" class="cls-65" data-name="Trazado 2150"/>
                    <path id="Trazado_2151" d="M1877.923 297.835l-1.3 4.865 7.885 3.7 1.475-4.257z" class="cls-65" data-name="Trazado 2151"/>
                    <g id="Grupo_2485" data-name="Grupo 2485">
                        <path id="Trazado_2152" d="M1953.963 260.358c.058.106-1.463.963-3.741 2.6l-.888.648c-.309.226-.614.482-.938.734-.656.5-1.314 1.082-2.018 1.681a47.306 47.306 0 0 0-7.92 9.012c-.5.774-1 1.5-1.408 2.216-.209.355-.423.69-.608 1.025s-.36.656-.528.964c-1.327 2.468-1.981 4.086-2.093 4.042a4.09 4.09 0 0 1 .338-1.184c.127-.376.295-.83.523-1.344s.462-1.113.787-1.742q.235-.479.494-1c.174-.345.379-.692.58-1.057.393-.737.875-1.487 1.372-2.283a41.944 41.944 0 0 1 8.036-9.143c.726-.6 1.408-1.17 2.088-1.654.336-.246.654-.494.974-.711l.925-.618c.583-.4 1.145-.715 1.627-1s.91-.517 1.266-.691a4.152 4.152 0 0 1 1.132-.495z" class="cls-66" data-name="Trazado 2152"/>
                    </g>
                    <g id="Grupo_2486" data-name="Grupo 2486">
                        <path id="Trazado_2153" d="M1959.01 232.249c.2.106-2.054 3.834-3.18 9-1.179 5.152-.724 9.485-.953 9.494a8.521 8.521 0 0 1-.381-2.816 25.684 25.684 0 0 1 .071-3.088 27.7 27.7 0 0 1 1.649-7.375 25.774 25.774 0 0 1 1.25-2.825 8.6 8.6 0 0 1 1.544-2.39z" class="cls-66" data-name="Trazado 2153"/>
                    </g>
                    <g id="Grupo_2487" data-name="Grupo 2487">
                        <path id="Trazado_2154" d="M1954.015 216.642a2.075 2.075 0 0 1 .418-.138 10.955 10.955 0 0 1 1.258-.3 16.484 16.484 0 0 1 4.97-.211 18.833 18.833 0 0 1 3.537.727 18.141 18.141 0 0 1 3.916 1.774 15.323 15.323 0 0 1 3.758 3.219 15.847 15.847 0 0 1 2.74 4.827 22.761 22.761 0 0 1 .485 12.579 54.394 54.394 0 0 1-5.485 13.423c-2.392 4.5-4.984 9.191-7.938 13.9a113.547 113.547 0 0 1-10.133 13.893 75.842 75.842 0 0 1-12.586 11.732 57.181 57.181 0 0 1-14.093 7.631c-1.2.468-2.423.785-3.613 1.163-.592.2-1.205.309-1.8.462l-1.785.425c-1.2.2-2.37.44-3.536.594l-1.74.2c-.574.071-1.145.136-1.714.158a63.121 63.121 0 0 1-12.63-.378 69.874 69.874 0 0 1-10.207-2.092c-2.963-.8-5.444-1.722-7.462-2.482-2-.808-3.543-1.462-4.562-1.966l-1.163-.56a2.073 2.073 0 0 1-.386-.213 2.062 2.062 0 0 1 .416.147l1.191.5c1.036.461 2.592 1.073 4.6 1.838 2.027.718 4.511 1.6 7.469 2.358a71.311 71.311 0 0 0 10.165 1.978 63.485 63.485 0 0 0 12.523.289 20.456 20.456 0 0 0 1.695-.166l1.72-.208c1.153-.159 2.311-.4 3.493-.6l1.761-.427c.589-.153 1.194-.263 1.778-.463 1.173-.379 2.384-.7 3.562-1.162a56.848 56.848 0 0 0 13.908-7.579 75.634 75.634 0 0 0 12.46-11.635 114.148 114.148 0 0 0 10.082-13.8c2.948-4.68 5.546-9.35 7.95-13.834a54.266 54.266 0 0 0 5.488-13.247 22.332 22.332 0 0 0-.384-12.282 15.483 15.483 0 0 0-2.614-4.706 15.018 15.018 0 0 0-3.623-3.172 18.043 18.043 0 0 0-3.809-1.788 19.063 19.063 0 0 0-3.465-.775 17.365 17.365 0 0 0-4.915.079c-.563.06-.976.19-1.264.234a2 2 0 0 1-.436.054z" class="cls-67" data-name="Trazado 2154"/>
                    </g>
                </g>
            </g>
        </g>
        <g id="Grupo_2513" data-name="Grupo 2513">
            <g id="Grupo_2512" class="cls-68" data-name="Grupo 2512">
                <g id="Grupo_2511" data-name="Grupo 2511">
                    <g id="Grupo_2493" data-name="Grupo 2493">
                        <path id="Trazado_2155" d="M76.839 316.384a16.78 16.78 0 0 0-16.334 15.982l-2.739 57.906 69.632 1.9-2.451-74.413z" class="cls-69" data-name="Trazado 2155"/>
                        <g id="Grupo_2492" data-name="Grupo 2492">
                            <g id="Grupo_2491" class="cls-70" data-name="Grupo 2491">
                                <path id="Trazado_2156" d="M72.055 313.33s36.235-4.41 40.646 3.467 1.891 78.772 1.891 78.772H96.316l-2.634-63.964-4.371.113a16.88 16.88 0 0 1-17.287-17.858z" class="cls-6" data-name="Trazado 2156"/>
                                <path id="Trazado_2157" d="M99.885 309.829s36.236-4.412 40.647 3.466 1.89 78.773 1.89 78.773h-18.275l-2.635-63.968-4.37.113a16.882 16.882 0 0 1-17.288-17.86z" class="cls-6" data-name="Trazado 2157"/>
                            </g>
                        </g>
                    </g>
                    <path id="Trazado_2159" d="M166.136 272.753l-59.174-48.118-30.868 23.8 3.668 48.107L124 305.717l10.584-27.155z" class="cls-71" data-name="Trazado 2159"/>
                    <g id="Grupo_2495" data-name="Grupo 2495">
                        <path id="Trazado_2160" d="M106.346 309.778s36.235-4.411 40.646 3.465 1.891 78.774 1.891 78.774h-18.275l-2.636-63.964-24.462.631z" class="cls-72" data-name="Trazado 2160"/>
                        <g id="Grupo_2494" data-name="Grupo 2494">
                            <path id="Trazado_2161" d="M117.6 326.8a4.558 4.558 0 0 0 .778-.063l2.217-.279 3.5-.47 2.187-.3a7.248 7.248 0 0 1 2.391-.125 1.428 1.428 0 0 1 .926.693 3.3 3.3 0 0 1 .354 1.258q.12 1.413.252 2.934l.525 6.49c.36 4.571.731 9.6 1.081 14.88.707 10.563 1.19 20.135 1.509 27.064l.37 8.209.114 2.231a4.541 4.541 0 0 0 .073.776 4.766 4.766 0 0 0 .025-.78c0-.523-.012-1.274-.022-2.233-.032-1.94-.1-4.748-.215-8.216a830.217 830.217 0 0 0-1.367-27.083 860.481 860.481 0 0 0-1.119-14.885l-.571-6.489c-.1-1.017-.178-1.99-.282-2.944a3.61 3.61 0 0 0-.416-1.395 1.789 1.789 0 0 0-1.154-.846 3.76 3.76 0 0 0-1.322-.026c-.418.055-.809.122-1.2.18l-2.181.338-3.492.552-2.2.369a4.74 4.74 0 0 0-.761.16z" class="cls-73" data-name="Trazado 2161"/>
                        </g>
                        <path id="Trazado_2162" d="M124 310.8l-.4 17.682h-5.524l-7.3-17.138s10.929-1.534 13.224-.544z" class="cls-6" data-name="Trazado 2162"/>
                    </g>
                    <path id="Trazado_2163" d="M87.571 231.113c-2.238 3.319-6.65 4.154-10.535 5.119s-8.258 2.984-8.974 6.922c-.449 2.477.744 5.047.227 7.511-1.067 5.086-7.967 6.089-11.525 9.877a10.672 10.672 0 0 0-2 10.5 15.475 15.475 0 0 0 7.193 8.283c6.708 3.819 15.41 3.349 22.146-.421s11.536-10.511 13.817-17.885 2.192-15.335.709-22.91c-.551-2.814-1.433-5.813-3.733-7.525s-6.365-1.137-7.117 1.63" class="cls-25" data-name="Trazado 2163"/>
                    <path id="Trazado_2164" d="M76.685 302.5s-.192.437-.463 1.131c-.7 1.784-1.916 5.266-1.763 7.407l10.157-2.105" class="cls-74" data-name="Trazado 2164"/>
                    <g id="Grupo_2496" data-name="Grupo 2496">
                        <path id="Trazado_2165" d="M149.224 302.618l2.1-1.41a21.6 21.6 0 0 0 3.58-2.3 6.229 6.229 0 0 0 1.433-1.548 9.509 9.509 0 0 0 1.209-2.334.816.816 0 0 1 1.522-.255c.282.68-.19 2.861-1.807 4.907s2.388 1.155 3.854.856 6.044-1.01 6.492-.632c.658.554.186 1.362-1.285 1.625-1.488.268-5.824 1.367-5.629 2.134s7.632-.868 7.632-.868 1.534-.6 1.789.274c.46 1.584-7.577 2.727-8.344 2.816-.533.063-.351.9.218.8.586-.1 7.384-1.791 7.867-.182.371 1.233-6.6 1-7.817 2.134s5.306-.36 5.612.833c.114.444.137.792-3.732 1.11-3.961.325-14.839-.54-14.839-.54l.237-7.544" class="cls-16" data-name="Trazado 2165"/>
                        <path id="Trazado_2166" d="M121.3 265.387s4.546 31.172 6.314 31.828c12.126 4.5 27.1 2.781 27.1 2.781l.808 10.505s-39.371 4.211-42.956-11.019a259 259 0 0 1-5.574-34.2z" class="cls-16" data-name="Trazado 2166"/>
                    </g>
                    <path id="Trazado_2167" d="M74.514 309.778s36.235-4.411 40.646 3.465 1.891 78.774 1.891 78.774H98.775l-2.634-63.964-4.371.113a16.881 16.881 0 0 1-17.287-17.859z" class="cls-75" data-name="Trazado 2167"/>
                    <path id="Trazado_2168" d="M166.136 272.753l-9.753 36.177H99.975v-2.4l22.634-1.208 7.231-34.413z" class="cls-76" data-name="Trazado 2168"/>
                    <path id="Trazado_2169" d="M71.551 266.948s3.763-18.566 16.888-17.118 20.62 1.98 20.62 1.98 12.987-1.423 14.555 12.82a13.951 13.951 0 0 1 .03 2.577l-.433 5.657-11.04-.919s-.921 18.588.665 23.647c1.795 5.722 4.5 13.194 4.5 13.194l-35.469-.386 3.556-38.511-13.872-2.943" class="cls-74" data-name="Trazado 2169"/>
                    <g id="Grupo_2501" data-name="Grupo 2501">
                        <path id="Trazado_2170" d="M107.362 252.071a40 40 0 0 1 .059-5.726s4.71-.664 4.834-5.361-.538-15.5-.538-15.5l-8.756-3.91-7.694 7.726 1.4 21.933z" class="cls-16" data-name="Trazado 2170"/>
                        <g id="Grupo_2497" data-name="Grupo 2497">
                            <path id="Trazado_2171" d="M100.119 229.584a1.14 1.14 0 0 0-.238.116 3.292 3.292 0 0 0-.616.442 4.091 4.091 0 0 0-1.33 2.416 4.147 4.147 0 0 0 .137 1.932 4.2 4.2 0 0 0 1.208 1.867 4.215 4.215 0 0 0 2.228 1.031A4.2 4.2 0 0 0 105.9 235a4.207 4.207 0 0 0 .35-2.43 4.218 4.218 0 0 0-.907-2.031 4.163 4.163 0 0 0-1.546-1.167 4.1 4.1 0 0 0-2.751-.2 3.278 3.278 0 0 0-.706.277 1.088 1.088 0 0 0-.226.135c.013.028.327-.166.955-.32a4.109 4.109 0 0 1 2.657.267 4.018 4.018 0 0 1 2.3 3.073 4.018 4.018 0 0 1-.344 2.3 3.98 3.98 0 0 1-4.148 2.251 4.032 4.032 0 0 1-2.112-.962 4.019 4.019 0 0 1-1.323-3.6 4.1 4.1 0 0 1 1.224-2.374c.477-.451.812-.609.796-.635z" class="cls-25" data-name="Trazado 2171"/>
                        </g>
                        <g id="Grupo_2498" data-name="Grupo 2498">
                            <path id="Trazado_2172" d="M111.74 228.748a1.086 1.086 0 0 0-.264 0 3.3 3.3 0 0 0-.748.12 4.091 4.091 0 0 0-2.269 1.569 4.152 4.152 0 0 0-.74 1.79 4.207 4.207 0 0 0 .248 2.21 4.231 4.231 0 0 0 1.534 1.917 4.2 4.2 0 0 0 5-.173 3.977 3.977 0 0 0 .864-.929 3.932 3.932 0 0 0 .534-1.091 4.217 4.217 0 0 0 .094-2.222 4.147 4.147 0 0 0-.863-1.734 4.091 4.091 0 0 0-2.372-1.407 3.225 3.225 0 0 0-.755-.068 1.1 1.1 0 0 0-.263.02c0 .03.366 0 1 .141a4.1 4.1 0 0 1 2.26 1.421 4.019 4.019 0 0 1 .688 3.778 4.019 4.019 0 0 1-1.332 1.9 3.981 3.981 0 0 1-4.717.163 4.014 4.014 0 0 1-1.461-1.8 4.015 4.015 0 0 1 .425-3.815 4.1 4.1 0 0 1 2.154-1.578c.617-.189.986-.182.983-.212z" class="cls-25" data-name="Trazado 2172"/>
                        </g>
                        <g id="Grupo_2499" data-name="Grupo 2499">
                            <path id="Trazado_2173" d="M107.883 233.331c0-.068-.4-.108-.892-.092s-.886.086-.883.153.4.109.892.091.886-.083.883-.152z" class="cls-25" data-name="Trazado 2173"/>
                        </g>
                        <g id="Grupo_2500" data-name="Grupo 2500">
                            <path id="Trazado_2174" d="M98.15 233.669a9.294 9.294 0 0 0-2.127-.048 9.329 9.329 0 0 0-2.118.195 9.316 9.316 0 0 0 2.127.049 9.382 9.382 0 0 0 2.118-.196z" class="cls-25" data-name="Trazado 2174"/>
                        </g>
                        <path id="Trazado_2175" d="M94.585 232.67s7.706-1 8.83-8.062l8.658 7.454a9.054 9.054 0 0 0-2.449-9.951c-4.816-4.669-7.97-3.555-9.793-3.492a15 15 0 0 0-12.447 12.044 21.065 21.065 0 0 0-.377 2.27z" class="cls-25" data-name="Trazado 2175"/>
                        <path id="Trazado_2176" d="M107.421 246.345a11.71 11.71 0 0 1-6.283-1.881s1.527 3.392 6.221 3.035z" class="cls-24" data-name="Trazado 2176"/>
                    </g>
                    <path id="Trazado_2177" d="M110.976 271.223c-.149 1.241.752 2.348 1.669 3.2a6.526 6.526 0 0 1 2.267 2.914 3.939 3.939 0 0 1-.3 2.453 6.632 6.632 0 0 1-4.9 3.868" class="cls-74" data-name="Trazado 2177"/>
                    <path id="Trazado_2178" d="M109.709 307.817l2.3-31.5c-1.725 0-23.966-2.146-23.966-2.146l-4.521 34.618z" class="cls-77" data-name="Trazado 2178"/>
                    <path id="Trazado_2179" d="M106.08 287.184s-.474 9.37-1.522 9.36c-4.173-.04-14.786-1.821-15.221-2.474s1.068-8.915 1.068-8.915z" class="cls-78" data-name="Trazado 2179"/>
                    <g id="Grupo_2502" data-name="Grupo 2502">
                        <path id="Trazado_2180" d="M107.742 287.414a2.531 2.531 0 0 0 .144-.538c.085-.373.213-.944.363-1.7l.022-.108-.114-.02c-3.373-.562-10.543-1.639-18.835-2.821l-.029-.005-.279-.04v3.189l.213.025c5.27.638 9.937 1.16 13.254 1.517l3.888.4a10.138 10.138 0 0 0 1.371.1 14.5 14.5 0 0 0-1.468-.246c-.944-.133-2.276-.319-3.925-.552-3.316-.453-7.89-1.062-13.061-1.7l.212.24v-2.692l-.279.242h.028c8.293 1.183 15.478 2.152 18.875 2.555l-.092-.127a68.65 68.65 0 0 0-.232 1.663 4.4 4.4 0 0 0-.056.618z" class="cls-78" data-name="Trazado 2180"/>
                    </g>
                    <g id="Grupo_2503" data-name="Grupo 2503">
                        <path id="Trazado_2181" d="M74.917 310.075a.983.983 0 0 0 .014.255c.021.167.038.419.1.742a13.729 13.729 0 0 0 .784 2.772A15.354 15.354 0 0 0 78.1 317.8a14.9 14.9 0 0 0 4.626 3.88 15.6 15.6 0 0 0 7.069 1.869 15.182 15.182 0 0 0 2.023-.089l2.048-.26a13.816 13.816 0 0 1 2.085-.114 4.749 4.749 0 0 1 2.017.466A3.326 3.326 0 0 1 99.437 325a6.822 6.822 0 0 1 .635 2.11c.214 1.509.368 3.087.525 4.676.306 3.188.511 6.5.656 9.895.286 6.793.278 13.275.3 19.171s.037 11.2.052 15.664l.077 10.561.046 2.871.024.747a.992.992 0 0 0 .025.253.936.936 0 0 0 .025-.253l.024-.747.046-2.871.078-10.561.053-15.664c0-5.9.027-12.384-.259-19.192-.145-3.4-.355-6.722-.668-9.918-.161-1.6-.317-3.161-.54-4.708a7.278 7.278 0 0 0-.692-2.25 3.785 3.785 0 0 0-1.67-1.635 5.172 5.172 0 0 0-2.2-.5 14.1 14.1 0 0 0-2.153.127l-2.044.271a14.733 14.733 0 0 1-1.968.1 15.313 15.313 0 0 1-6.914-1.769 14.735 14.735 0 0 1-4.576-3.746 15.612 15.612 0 0 1-2.314-3.852 15.114 15.114 0 0 1-.863-2.72c-.152-.647-.203-.989-.225-.985z" class="cls-78" data-name="Trazado 2181"/>
                    </g>
                    <g id="Grupo_2504" data-name="Grupo 2504">
                        <path id="Trazado_2182" d="M105.441 316.605a29.2 29.2 0 0 0 5.315.046 29.222 29.222 0 0 0 5.3-.442 28.979 28.979 0 0 0-5.315-.046 29.018 29.018 0 0 0-5.3.442z" class="cls-78" data-name="Trazado 2182"/>
                    </g>
                    <g id="Grupo_2505" data-name="Grupo 2505">
                        <path id="Trazado_2183" d="M96.119 328.229c.1.091.595-.3 1.106-.865s.843-1.1.742-1.192-.6.3-1.105.865-.843 1.102-.743 1.192z" class="cls-78" data-name="Trazado 2183"/>
                    </g>
                    <g id="Grupo_2506" data-name="Grupo 2506">
                        <path id="Trazado_2184" d="M95.987 328.438c.134.007.285-.82.337-1.848s-.016-1.866-.15-1.873-.285.821-.337 1.848.015 1.866.15 1.873z" class="cls-78" data-name="Trazado 2184"/>
                    </g>
                    <g id="Grupo_2507" data-name="Grupo 2507">
                        <path id="Trazado_2185" d="M79.762 309.652c-.045.026.179.541.8 1.191a6.2 6.2 0 0 0 1.226.98 6.966 6.966 0 0 0 3.675 1.025 6.259 6.259 0 0 0 1.557-.2 2.684 2.684 0 0 0 1.3-.607 9.78 9.78 0 0 0-1.371.269 7.694 7.694 0 0 1-1.477.094 7.676 7.676 0 0 1-3.455-.963 7.738 7.738 0 0 1-1.217-.845c-.648-.556-.971-.99-1.038-.944z" class="cls-78" data-name="Trazado 2185"/>
                    </g>
                    <g id="Grupo_2508" data-name="Grupo 2508">
                        <path id="Trazado_2186" d="M92.963 275.773a8.656 8.656 0 0 0 2.091.537c1.306.257 3.125.54 5.147.74s3.864.276 5.2.28a8.623 8.623 0 0 0 2.155-.118 10.437 10.437 0 0 0-2.143-.227c-1.322-.091-3.147-.223-5.158-.42s-3.827-.427-5.141-.6a10.519 10.519 0 0 0-2.151-.192z" class="cls-78" data-name="Trazado 2186"/>
                    </g>
                    <path id="Trazado_2187" d="M117.051 392.017H98.775v-6.349h18.992z" class="cls-78" data-name="Trazado 2187"/>
                    <path id="Trazado_2188" d="M148.85 392.017h-19.089v-6.349H149.6z" class="cls-79" data-name="Trazado 2188"/>
                    <g id="Grupo_2509" data-name="Grupo 2509">
                        <path id="Trazado_2189" d="M93.9 250.414l-1 27.024h-3.175v-27.689z" class="cls-78" data-name="Trazado 2189"/>
                        <path id="Trazado_2190" d="M90.4 275.761a.813.813 0 1 0 .813-.812.813.813 0 0 0-.813.812z" class="cls-77" data-name="Trazado 2190"/>
                    </g>
                    <g id="Grupo_2510" data-name="Grupo 2510">
                        <path id="Trazado_2191" d="M113.615 251.92l-3.115 26.862-3.171-.249 2.173-27.6z" class="cls-78" data-name="Trazado 2191"/>
                        <path id="Trazado_2192" d="M108.364 277.116a.813.813 0 1 0 .812-.813.812.812 0 0 0-.812.813z" class="cls-77" data-name="Trazado 2192"/>
                    </g>
                    <path id="Trazado_2193" d="M116.083 299.951s-22.336 3.849-25.739-8.278-5.219-21.882-5.219-21.882.4 30.628 4.277 32.983 28.386-.13 27.736-2.756" class="cls-6" data-name="Trazado 2193"/>
                    <path id="Trazado_2194" d="M71.551 266.948l13.872 2.943s.1 26.513 5.509 29.024c10.665 4.954 24.432 1.84 26.845 1.233.4-.31.855-.672 1.348-1.1a6.185 6.185 0 0 0 1.337-1.631 9.568 9.568 0 0 0 1.066-2.4.815.815 0 0 1 1.5-.345c.324.66-.016 2.867-1.506 5.007s2.453 1.008 3.9.621 5.972-1.374 6.443-1.024c.69.513.267 1.348-1.185 1.7-1.469.357-5.731 1.718-5.49 2.47s7.566-1.327 7.566-1.327 1.495-.7 1.8.166c.555 1.553-7.4 3.178-8.158 3.314-.53.1-.3.923.265.791.579-.136 7.262-2.234 7.842-.658.445 1.209-6.529 1.4-7.673 2.6s5.274-.681 5.652.491c.14.437.185.783-3.658 1.333a89.12 89.12 0 0 1-9.687.394c-4.267.6-37.817 4.9-43.094-8.466-5.923-15.01-4.494-35.136-4.494-35.136z" class="cls-16" data-name="Trazado 2194"/>
                    <path id="Trazado_2195" d="M112.209 392s9.652 1.8 7.229 2.53-19.368-.61-19.368-.61V392z" class="cls-80" data-name="Trazado 2195"/>
                    <path id="Trazado_2196" d="M144.357 392s9.652 1.8 7.228 2.53-19.368-.61-19.368-.61V392z" class="cls-80" data-name="Trazado 2196"/>
                    <path id="Trazado_2197" d="M91.815 235.532s-5-3.4-4.62-3.912l-1.2 1.2 4.41 4.153z" class="cls-81" data-name="Trazado 2197"/>
                    <path id="Trazado_2198" d="M142.145 289.47c-.329 1.537.348 2.986 1.512 3.235s2.375-.795 2.7-2.333-.348-2.986-1.512-3.235-2.371.795-2.7 2.333z" class="cls-69" data-name="Trazado 2198"/>
                </g>
            </g>
        </g>
    </g>
</svg>
