<?xml version="1.0" standalone="no"?>
<!DOCTYPE svg PUBLIC "-//W3C//DTD SVG 20010904//EN"
 "http://www.w3.org/TR/2001/REC-SVG-20010904/DTD/svg10.dtd">
<svg version="1.0" xmlns="http://www.w3.org/2000/svg"
 width="300.000000pt" height="300.000000pt" viewBox="0 0 300.000000 300.000000"
 preserveAspectRatio="xMidYMid meet">
<metadata>
Created by potrace 1.11, written by Peter Selinger 2001-2013
</metadata>
<g transform="translate(0.000000,300.000000) scale(0.100000,-0.100000)"
fill="#000000" stroke="none">
<path d="M2398 2345 c-2 -1 -29 -5 -60 -8 -106 -9 -240 -94 -284 -179 -13 -26
-16 -27 -86 -23 -65 3 -95 0 -188 -19 -96 -21 -209 -116 -259 -219 -39 -79
-44 -120 -44 -349 l-1 -187 -70 2 -71 2 -1 368 c-1 203 -5 371 -9 375 -3 4
-76 7 -162 7 l-156 1 -66 -141 c-36 -77 -87 -183 -112 -235 l-46 -95 -23 50
c-12 28 -38 84 -57 125 -20 41 -58 122 -85 180 -27 57 -53 107 -58 110 -13 8
-308 6 -316 -3 -9 -9 -10 -1410 -1 -1424 4 -6 67 -11 162 -11 137 -1 155 0
163 16 5 9 8 200 8 425 -1 224 1 407 4 407 3 0 48 -87 100 -192 52 -106 100
-193 105 -192 6 0 51 83 102 184 51 101 96 187 101 192 5 5 9 -169 9 -405 0
-227 3 -419 7 -425 8 -13 295 -15 316 -2 9 5 12 60 12 209 l1 201 72 0 72 0 1
-43 c6 -133 99 -284 214 -343 100 -52 285 -70 402 -39 157 41 277 161 312 311
11 48 18 332 8 365 -4 14 -35 16 -272 17 -147 0 -282 1 -299 1 l-33 1 0 174
c0 95 3 187 6 203 14 69 91 118 161 102 44 -9 90 -52 99 -93 5 -17 9 -34 10
-38 1 -5 2 -38 3 -76 l1 -67 143 2 c78 1 168 4 201 7 121 9 247 102 304 224
23 50 27 70 27 157 0 88 -3 107 -27 157 -33 71 -102 146 -165 181 -41 22 -167
59 -175 52z m-318 -1282 c0 -34 -31 -86 -62 -107 -13 -9 -40 -18 -61 -21 -70
-11 -147 55 -147 126 l0 29 135 0 135 0 0 -27z"/>
</g>
</svg>
