<?xml version="1.0" encoding="utf-8"?>
<!-- Generator: Adobe Illustrator 22.1.0, SVG Export Plug-In . SVG Version: 6.00 Build 0)  -->
<svg version="1.1" id="Layer_1" xmlns="http://www.w3.org/2000/svg" xmlns:xlink="http://www.w3.org/1999/xlink" x="0px" y="0px"
	 viewBox="0 0 830 275" style="enable-background:new 0 0 830 275;" xml:space="preserve">
<style type="text/css">
	.st0{enable-background:new    ;}
	.st1{fill:#DEE179;}
	.st2{opacity:0.53;fill:#F2F4F5;enable-background:new    ;}
	.st3{opacity:0.56;fill:#F2F4F5;enable-background:new    ;}
	.st4{fill:#F2F4F5;}
	.st5{fill:#FFFFFF;}
	.st6{fill:#223D57;}
	.st7{opacity:4.000000e-02;fill:#FFFFFF;enable-background:new    ;}
</style>
<g id="Grupo_2364" transform="translate(-580 -1455)">
	<g id="Grupo_2352" transform="translate(589 1461)">
		<g class="st0">
			<path class="st1" d="M74,103.2v0.9c0,0.1-0.1,0.2-0.2,0.2h-3c0,0-0.1,0-0.1,0.1v9.5c0,0.1-0.1,0.2-0.2,0.2h-1.1
				c-0.1,0-0.2-0.1-0.2-0.2v-9.5c0,0,0-0.1-0.1-0.1h-2.8c-0.1,0-0.2-0.1-0.2-0.2v-0.9c0-0.1,0.1-0.2,0.2-0.2h7.5
				C73.9,103,74,103.1,74,103.2z"/>
			<path class="st1" d="M79.8,112c0.1-0.1,0.2-0.2,0.3-0.1l0.7,0.4c0.1,0.1,0.2,0.2,0.1,0.3c-0.6,1-1.6,1.7-3.1,1.7s-2.6-0.7-3.1-2
				c-0.3-0.6-0.4-1.4-0.4-2.3c0-0.7,0-1.3,0.2-1.8c0.4-1.5,1.6-2.4,3.2-2.4c2.1,0,3.1,1.2,3.4,3.1c0.1,0.4,0.1,0.9,0.1,1.4
				c0,0.2-0.1,0.2-0.2,0.2h-5.1c0,0-0.1,0-0.1,0.1c0,0.4,0,0.7,0.1,0.9c0.2,0.8,1,1.4,2,1.4C78.8,113,79.5,112.6,79.8,112z
				 M76,108.5c-0.1,0.2-0.1,0.5-0.1,0.9c0,0,0,0.1,0.1,0.1h3.6c0,0,0.1,0,0.1-0.1c0-0.3,0-0.6-0.1-0.8c-0.2-0.8-0.8-1.4-1.8-1.4
				S76.2,107.8,76,108.5z"/>
			<path class="st1" d="M83.1,112c-0.2-0.5-0.2-1.2-0.2-1.9c0-0.9,0.1-1.4,0.2-1.9c0.4-1.4,1.6-2.2,3.3-2.2c1.6,0,2.9,0.9,3.3,2.1
				c0.1,0.2,0.1,0.3,0.1,0.4s-0.1,0.2-0.2,0.3l-1,0.1c-0.1,0-0.2,0-0.3-0.2v-0.2c-0.2-0.7-0.8-1.3-1.8-1.3c-0.9,0-1.6,0.5-1.8,1.3
				c-0.1,0.3-0.1,0.8-0.1,1.5s0.1,1.2,0.1,1.5c0.2,0.8,0.8,1.4,1.8,1.4c0.9,0,1.6-0.5,1.8-1.3v-0.1l0,0c0-0.1,0.1-0.2,0.3-0.2l1,0.2
				c0.1,0,0.2,0.1,0.2,0.3c0,0.1,0,0.2-0.1,0.3c-0.4,1.3-1.7,2.2-3.3,2.2C84.8,114.3,83.6,113.4,83.1,112z"/>
			<path class="st1" d="M98,108.8v5.2c0,0.1-0.1,0.2-0.2,0.2h-1.1c-0.1,0-0.2-0.1-0.2-0.2v-4.9c0-1.1-0.7-1.8-1.7-1.8
				c-0.9,0-1.6,0.6-1.7,1.5v5.2c0,0.1-0.1,0.2-0.2,0.2h-1.1c-0.1,0-0.2-0.1-0.2-0.2v-7.7c0-0.1,0.1-0.2,0.2-0.2h1.1
				c0.1,0,0.2,0.1,0.2,0.2v0.4c0,0.1,0,0.1,0.1,0c0.5-0.6,1.2-0.8,2-0.8C96.9,105.9,98,107,98,108.8z"/>
			<path class="st1" d="M100.3,112.1c-0.2-0.5-0.3-1.2-0.3-2s0.1-1.4,0.3-1.9c0.5-1.4,1.7-2.3,3.3-2.3c1.6,0,2.8,0.8,3.2,2.2
				c0.2,0.5,0.3,1.2,0.3,1.9c0,0.7-0.1,1.4-0.3,2c-0.5,1.4-1.7,2.3-3.2,2.3C102,114.3,100.7,113.5,100.3,112.1z M105.4,111.6
				c0.1-0.4,0.2-1,0.2-1.5c0-0.6-0.1-1.1-0.2-1.5c-0.3-0.9-0.9-1.4-1.9-1.4c-0.9,0-1.6,0.5-1.8,1.4c-0.1,0.4-0.2,0.9-0.2,1.5
				s0.1,1.1,0.2,1.5c0.3,0.9,0.9,1.4,1.9,1.4C104.4,113,105.1,112.5,105.4,111.6z"/>
			<path class="st1" d="M109.1,114v-10.7c0-0.1,0.1-0.2,0.2-0.2h1.1c0.1,0,0.2,0.1,0.2,0.2V114c0,0.1-0.1,0.2-0.2,0.2h-1.1
				C109.2,114.2,109.1,114.1,109.1,114z"/>
			<path class="st1" d="M113,112.1c-0.2-0.5-0.3-1.2-0.3-2s0.1-1.4,0.3-1.9c0.5-1.4,1.7-2.3,3.3-2.3c1.6,0,2.8,0.8,3.2,2.2
				c0.2,0.5,0.3,1.2,0.3,1.9c0,0.7-0.1,1.4-0.3,2c-0.5,1.4-1.7,2.3-3.2,2.3C114.7,114.3,113.4,113.5,113,112.1z M118.1,111.6
				c0.1-0.4,0.2-1,0.2-1.5c0-0.6-0.1-1.1-0.2-1.5c-0.3-0.9-0.9-1.4-1.9-1.4c-0.9,0-1.6,0.5-1.8,1.4c-0.1,0.4-0.2,0.9-0.2,1.5
				s0.1,1.1,0.2,1.5c0.3,0.9,0.9,1.4,1.9,1.4C117.1,113,117.8,112.5,118.1,111.6z"/>
			<path class="st1" d="M127,106.1h1.1c0.1,0,0.2,0.1,0.2,0.2v7.5c0,3-2.2,3.8-4.8,3.6c-0.2,0-0.2-0.1-0.2-0.3v-0.9
				c0-0.1,0.1-0.2,0.3-0.2c2.2,0.1,3.1-0.4,3.1-2.2v-0.3c0-0.1,0-0.1-0.1,0c-0.4,0.5-1,0.8-2,0.8c-1.3,0-2.6-0.7-3-2.1
				c-0.2-0.5-0.2-1.2-0.2-2s0-1.5,0.2-2c0.4-1.2,1.5-2.1,2.9-2.1c0.9,0,1.6,0.3,2,0.8c0,0.1,0.1,0,0.1,0v-0.4
				C126.8,106.2,126.9,106.1,127,106.1z M126.8,110.1c0-1,0-1.2-0.1-1.5c-0.2-0.8-0.8-1.3-1.7-1.3s-1.5,0.6-1.8,1.3
				c-0.1,0.3-0.2,0.7-0.2,1.5s0.1,1.3,0.2,1.5c0.2,0.8,0.8,1.3,1.8,1.3s1.6-0.6,1.7-1.3C126.8,111.3,126.8,111.1,126.8,110.1z"/>
			<path class="st1" d="M130.4,104.5l0.8-1.6c0.1-0.1,0.2-0.2,0.3-0.2h1c0.2,0,0.3,0.1,0.2,0.3l-1,1.6c-0.1,0.1-0.2,0.2-0.3,0.2
				h-0.8C130.4,104.8,130.3,104.7,130.4,104.5z M130.4,114v-7.7c0-0.1,0.1-0.2,0.2-0.2h1.1c0.1,0,0.2,0.1,0.2,0.2v7.7
				c0,0.1-0.1,0.2-0.2,0.2h-1.1C130.5,114.2,130.4,114.1,130.4,114z"/>
			<path class="st1" d="M140.3,108.6v5.3c0,0.1-0.1,0.2-0.2,0.2H139c-0.1,0-0.2-0.1-0.2-0.2v-0.4c0-0.1,0-0.1-0.1,0
				c-0.6,0.6-1.4,0.9-2.4,0.9c-1.4,0-2.7-0.7-2.7-2.4c0-1.6,1.2-2.7,3.3-2.7h1.8c0,0,0.1,0,0.1-0.1v-0.4c0-0.9-0.5-1.5-1.6-1.5
				c-0.9,0-1.4,0.4-1.6,0.9c0,0.1-0.1,0.2-0.3,0.2l-1.2-0.1c-0.1,0-0.2-0.1-0.2-0.2c0.2-1.2,1.5-2.1,3.2-2.1
				C139.1,105.9,140.3,107.1,140.3,108.6z M138.8,111.4v-0.9c0,0,0-0.1-0.1-0.1h-1.5c-1.2,0-2.1,0.5-2.1,1.4c0,0.8,0.7,1.2,1.5,1.2
				C137.8,113,138.8,112.4,138.8,111.4z"/>
		</g>
		<g class="st0">
			<path class="st1" d="M657.6,113.2v-3.8c0-2.3,1.6-3.8,4-3.8s4,1.5,4,3.8v3.8c0,2.3-1.6,3.8-4,3.8
				C659.2,117,657.6,115.5,657.6,113.2z M664,113.3v-3.9c0-1.5-1-2.5-2.4-2.5s-2.4,1-2.4,2.5v3.9c0,1.5,1,2.4,2.4,2.4
				C663,115.7,664,114.7,664,113.3z"/>
			<path class="st1" d="M674.6,112.8c0,0.7-0.1,1.4-0.2,1.9c-0.4,1.4-1.5,2.2-3.1,2.2c-0.7,0-1.4-0.3-1.9-0.8h-0.1v3.5
				c0,0.1-0.1,0.2-0.2,0.2H668c-0.1,0-0.2-0.1-0.2-0.2V109c0-0.1,0.1-0.2,0.2-0.2h1.1c0.1,0,0.2,0.1,0.2,0.2v0.4c0,0.1,0,0.1,0.1,0
				c0.5-0.5,1.1-0.8,1.9-0.8c1.6,0,2.6,0.8,3,2.2C674.5,111.4,674.6,112.1,674.6,112.8z M673.1,112.8c0-0.9-0.1-1.5-0.4-2
				c-0.3-0.6-0.8-0.9-1.5-0.9c-0.6,0-1.1,0.3-1.4,0.9c-0.3,0.5-0.4,1.1-0.4,2s0.1,1.6,0.4,2c0.3,0.5,0.8,0.8,1.4,0.8
				c0.6,0,1.1-0.3,1.4-0.8S673.1,113.8,673.1,112.8z"/>
			<path class="st1" d="M680.2,110h-1.6c0,0-0.1,0-0.1,0.1v4.2c0,0.9,0.4,1.3,1.2,1.3h0.4c0.1,0,0.2,0.1,0.2,0.2v0.8
				c0,0.1-0.1,0.2-0.2,0.3c-0.2,0-0.4,0-0.7,0c-1.5,0-2.4-0.4-2.4-2v-4.7c0,0,0-0.1-0.1-0.1H676c-0.1,0-0.2-0.1-0.2-0.2V109
				c0-0.1,0.1-0.2,0.2-0.2h0.9c0,0,0.1,0,0.1-0.1v-1.8c0-0.1,0.1-0.2,0.2-0.2h1c0.1,0,0.2,0.1,0.2,0.2v1.8c0,0,0,0.1,0.1,0.1h1.6
				c0.1,0,0.2,0.1,0.2,0.2v0.8C680.4,109.9,680.3,110,680.2,110z"/>
			<path class="st1" d="M682.2,106.5c0-0.6,0.4-1,1.1-1s1,0.4,1,1s-0.4,1-1,1S682.2,107.1,682.2,106.5z M682.5,116.6V109
				c0-0.1,0.1-0.2,0.2-0.2h1.1c0.1,0,0.2,0.1,0.2,0.2v7.7c0,0.1-0.1,0.2-0.2,0.2h-1.1C682.6,116.9,682.5,116.8,682.5,116.6z"/>
			<path class="st1" d="M697.4,111.4v5.3c0,0.1-0.1,0.2-0.2,0.2h-1c-0.1,0-0.2-0.1-0.2-0.2v-4.9c0-1.1-0.6-1.7-1.6-1.7
				s-1.7,0.7-1.7,1.7v5c0,0.1-0.1,0.2-0.2,0.2h-1c-0.1,0-0.2-0.1-0.2-0.2v-4.9c0-1.1-0.6-1.7-1.6-1.7s-1.6,0.7-1.6,1.7v5
				c0,0.1-0.1,0.2-0.2,0.2h-1.1c-0.1,0-0.2-0.1-0.2-0.2V109c0-0.1,0.1-0.2,0.2-0.2h1.1c0.1,0,0.2,0.1,0.2,0.2v0.4c0,0.1,0,0.1,0.1,0
				c0.5-0.6,1.2-0.8,2-0.8c1.1,0,1.9,0.4,2.3,1.2h0.1c0.5-0.9,1.4-1.2,2.4-1.2C696.4,108.6,697.4,109.6,697.4,111.4z"/>
			<path class="st1" d="M699.4,106.5c0-0.6,0.4-1,1.1-1c0.6,0,1,0.4,1,1s-0.4,1-1,1C699.8,107.5,699.4,107.1,699.4,106.5z
				 M699.7,116.6V109c0-0.1,0.1-0.2,0.2-0.2h1.1c0.1,0,0.2,0.1,0.2,0.2v7.7c0,0.1-0.1,0.2-0.2,0.2h-1.1
				C699.8,116.9,699.7,116.8,699.7,116.6z"/>
			<path class="st1" d="M702.9,116.6v-1c0-0.1,0-0.2,0.1-0.3l4.2-5.1v-0.1h-3.9c-0.1,0-0.2-0.1-0.2-0.2V109c0-0.1,0.1-0.2,0.2-0.2
				h5.6c0.1,0,0.2,0.1,0.2,0.2v1c0,0.1,0,0.2-0.1,0.3l-4.2,5.1v0.1h4.1c0.1,0,0.2,0.1,0.2,0.2v0.9c0,0.1-0.1,0.2-0.2,0.2h-5.7
				C703,116.9,702.9,116.8,702.9,116.6z"/>
			<path class="st1" d="M717,111.3v5.3c0,0.1-0.1,0.2-0.2,0.2h-1.1c-0.1,0-0.2-0.1-0.2-0.2v-0.4c0-0.1,0-0.1-0.1,0
				c-0.6,0.6-1.4,0.9-2.4,0.9c-1.4,0-2.7-0.7-2.7-2.4c0-1.6,1.2-2.7,3.3-2.7h1.8c0,0,0.1,0,0.1-0.1v-0.4c0-0.9-0.5-1.5-1.6-1.5
				c-0.9,0-1.4,0.4-1.6,0.9c0,0.1-0.1,0.2-0.3,0.2l-1.2-0.1c-0.1,0-0.2-0.1-0.2-0.2c0.2-1.2,1.5-2.1,3.2-2.1
				C715.8,108.6,717,109.8,717,111.3z M715.5,114.1v-0.9c0,0,0-0.1-0.1-0.1h-1.5c-1.2,0-2.1,0.5-2.1,1.4c0,0.8,0.7,1.2,1.5,1.2
				C714.5,115.7,715.5,115.1,715.5,114.1z"/>
			<path class="st1" d="M719.1,114.7c-0.2-0.5-0.2-1.2-0.2-1.9c0-0.9,0.1-1.4,0.2-1.9c0.4-1.4,1.6-2.2,3.3-2.2
				c1.6,0,2.9,0.9,3.3,2.1c0.1,0.2,0.1,0.3,0.1,0.4s-0.1,0.2-0.2,0.3l-1,0.1c-0.1,0-0.2,0-0.3-0.2v-0.2c-0.2-0.7-0.8-1.3-1.8-1.3
				c-0.9,0-1.6,0.5-1.8,1.3c-0.1,0.3-0.1,0.8-0.1,1.5s0.1,1.2,0.1,1.5c0.2,0.8,0.8,1.4,1.8,1.4c0.9,0,1.6-0.5,1.8-1.3v-0.1l0,0
				c0-0.1,0.1-0.2,0.3-0.2l1,0.2c0.1,0,0.2,0.1,0.2,0.3c0,0.1,0,0.2-0.1,0.3c-0.4,1.3-1.7,2.2-3.3,2.2
				C720.7,117,719.5,116.1,719.1,114.7z"/>
			<path class="st1" d="M727.3,106.5c0-0.6,0.4-1,1.1-1c0.6,0,1,0.4,1,1s-0.4,1-1,1S727.3,107.1,727.3,106.5z M727.6,116.6V109
				c0-0.1,0.1-0.2,0.2-0.2h1.1c0.1,0,0.2,0.1,0.2,0.2v7.7c0,0.1-0.1,0.2-0.2,0.2h-1.1C727.7,116.9,727.6,116.8,727.6,116.6z"/>
			<path class="st1" d="M731.5,114.7c-0.2-0.5-0.3-1.2-0.3-2s0.1-1.4,0.3-1.9c0.5-1.4,1.7-2.3,3.3-2.3s2.8,0.8,3.2,2.2
				c0.2,0.5,0.3,1.2,0.3,1.9c0,0.7-0.1,1.4-0.3,2c-0.5,1.4-1.7,2.3-3.2,2.3C733.2,117,732,116.2,731.5,114.7z M736.6,114.3
				c0.1-0.4,0.2-1,0.2-1.5c0-0.6-0.1-1.1-0.2-1.5c-0.3-0.9-0.9-1.4-1.9-1.4c-0.9,0-1.6,0.5-1.8,1.4c-0.1,0.4-0.2,0.9-0.2,1.5
				s0.1,1.1,0.2,1.5c0.3,0.9,0.9,1.4,1.9,1.4C735.7,115.7,736.4,115.2,736.6,114.3z M734.1,107.3l0.8-1.6c0.1-0.1,0.2-0.2,0.3-0.2h1
				c0.2,0,0.3,0.1,0.2,0.3l-1,1.6c-0.1,0.1-0.2,0.2-0.3,0.2h-0.8C734.1,107.5,734,107.4,734.1,107.3z"/>
			<path class="st1" d="M746.9,111.4v5.2c0,0.1-0.1,0.2-0.2,0.2h-1.1c-0.1,0-0.2-0.1-0.2-0.2v-4.9c0-1.1-0.7-1.8-1.7-1.8
				c-0.9,0-1.6,0.6-1.7,1.5v5.2c0,0.1-0.1,0.2-0.2,0.2h-1.1c-0.1,0-0.2-0.1-0.2-0.2V109c0-0.1,0.1-0.2,0.2-0.2h1.1
				c0.1,0,0.2,0.1,0.2,0.2v0.4c0,0.1,0,0.1,0.1,0c0.5-0.6,1.2-0.8,2-0.8C745.8,108.6,746.9,109.7,746.9,111.4z"/>
		</g>
		<g class="st0">
			<path class="st1" d="M477,97.5c0,1.9-1.3,3.2-3.3,3.2h-2.8c0,0-0.1,0-0.1,0.1v4.4c0,0.1-0.1,0.2-0.2,0.2h-1.1
				c-0.1,0-0.2-0.1-0.2-0.2V94.5c0-0.1,0.1-0.2,0.2-0.2h4.2C475.7,94.2,477,95.5,477,97.5z M475.5,97.5c0-1.2-0.8-2-2-2h-2.7
				c0,0-0.1,0-0.1,0.1v3.7c0,0,0,0.1,0.1,0.1h2.7C474.7,99.4,475.5,98.7,475.5,97.5z"/>
			<path class="st1" d="M483.1,97.4c0.1,0.1,0.2,0.2,0.1,0.3l-0.2,1c0,0.2-0.1,0.2-0.3,0.1c-0.2-0.1-0.5-0.1-0.8-0.1
				c-1,0-1.7,0.7-1.7,1.8v4.6c0,0.1-0.1,0.2-0.2,0.2h-1.1c-0.1,0-0.2-0.1-0.2-0.2v-7.7c0-0.1,0.1-0.2,0.2-0.2h1.1
				c0.1,0,0.2,0.1,0.2,0.2v0.7c0,0.1,0,0.1,0.1,0c0.4-0.7,1.1-1.1,2-1.1C482.6,97.2,482.9,97.3,483.1,97.4z"/>
			<path class="st1" d="M484.5,103.3c-0.2-0.5-0.3-1.2-0.3-2s0.1-1.4,0.3-1.9c0.5-1.4,1.7-2.3,3.3-2.3c1.6,0,2.8,0.8,3.2,2.2
				c0.2,0.5,0.3,1.2,0.3,1.9c0,0.7-0.1,1.4-0.3,2c-0.5,1.4-1.7,2.3-3.3,2.3C486.2,105.6,485,104.7,484.5,103.3z M489.6,102.9
				c0.1-0.4,0.2-1,0.2-1.5c0-0.6-0.1-1.1-0.2-1.5c-0.3-0.9-0.9-1.4-1.9-1.4c-0.9,0-1.6,0.5-1.8,1.4c-0.1,0.4-0.2,0.9-0.2,1.5
				s0.1,1.1,0.2,1.5c0.3,0.9,0.9,1.4,1.9,1.4C488.7,104.2,489.3,103.7,489.6,102.9z"/>
			<path class="st1" d="M493.3,103.3c-0.2-0.5-0.2-1.2-0.2-1.9c0-0.9,0.1-1.4,0.2-1.9c0.4-1.4,1.6-2.2,3.3-2.2
				c1.6,0,2.9,0.9,3.3,2.1c0.1,0.2,0.1,0.3,0.1,0.4s-0.1,0.2-0.2,0.3l-1,0.1c-0.1,0-0.2,0-0.3-0.2v-0.2c-0.2-0.7-0.8-1.3-1.8-1.3
				c-0.9,0-1.6,0.5-1.8,1.3c-0.1,0.3-0.1,0.8-0.1,1.5s0.1,1.2,0.1,1.5c0.2,0.8,0.8,1.4,1.8,1.4c0.9,0,1.6-0.5,1.8-1.3v-0.1l0,0
				c0-0.1,0.1-0.2,0.3-0.2l1,0.2c0.1,0,0.2,0.1,0.2,0.3c0,0.1,0,0.2-0.1,0.3c-0.4,1.3-1.7,2.2-3.3,2.2
				C495,105.6,493.8,104.7,493.3,103.3z"/>
			<path class="st1" d="M507,103.2c0.1-0.1,0.2-0.2,0.3-0.1l0.7,0.4c0.1,0.1,0.2,0.2,0.1,0.3c-0.6,1-1.6,1.7-3.1,1.7s-2.6-0.7-3.1-2
				c-0.3-0.6-0.4-1.4-0.4-2.3c0-0.7,0-1.3,0.2-1.8c0.4-1.5,1.6-2.4,3.3-2.4c2.1,0,3.1,1.2,3.4,3.1c0.1,0.4,0.1,0.9,0.1,1.4
				c0,0.2-0.1,0.2-0.2,0.2h-5.1c0,0-0.1,0-0.1,0.1c0,0.4,0,0.7,0.1,0.9c0.2,0.8,1,1.4,2,1.4C506,104.2,506.6,103.9,507,103.2z
				 M503.1,99.8c-0.1,0.2-0.1,0.5-0.1,0.9c0,0,0,0.1,0.1,0.1h3.6c0,0,0.1,0,0.1-0.1c0-0.3,0-0.6-0.1-0.8c-0.2-0.8-0.8-1.4-1.8-1.4
				C503.9,98.5,503.4,99,503.1,99.8z"/>
			<path class="st1" d="M510,103.3L510,103.3c0-0.2,0.1-0.3,0.2-0.3h1c0.1,0,0.2,0,0.2,0.1v0.1c0,0.6,0.7,1.1,1.7,1.1
				s1.6-0.5,1.6-1.1c0-0.7-0.8-0.9-1.8-1.2c-1.4-0.4-3-0.9-3-2.5c0-1.5,1.2-2.3,3.1-2.3c1.9,0,3.1,1,3.1,2.3c0,0.1-0.1,0.2-0.2,0.2
				h-1c-0.1,0-0.2,0-0.2-0.1v-0.1c0-0.6-0.6-1.1-1.7-1.1c-0.9,0-1.6,0.4-1.6,1c0,0.7,0.8,0.9,1.8,1.2c1.4,0.4,3,0.8,3,2.5
				c0,1.5-1.2,2.4-3.2,2.4C511.2,105.5,510,104.6,510,103.3z"/>
			<path class="st1" d="M518.2,103.3c-0.2-0.5-0.3-1.2-0.3-2s0.1-1.4,0.3-1.9c0.5-1.4,1.7-2.3,3.3-2.3s2.8,0.8,3.2,2.2
				c0.2,0.5,0.3,1.2,0.3,1.9c0,0.7-0.1,1.4-0.3,2c-0.5,1.4-1.7,2.3-3.2,2.3C519.8,105.6,518.6,104.7,518.2,103.3z M523.3,102.9
				c0.1-0.4,0.2-1,0.2-1.5c0-0.6-0.1-1.1-0.2-1.5c-0.3-0.9-0.9-1.4-1.9-1.4c-0.9,0-1.6,0.5-1.8,1.4c-0.1,0.4-0.2,0.9-0.2,1.5
				s0.1,1.1,0.2,1.5c0.3,0.9,0.9,1.4,1.9,1.4C522.3,104.2,523,103.7,523.3,102.9z"/>
			<path class="st1" d="M526.6,103.3L526.6,103.3c0-0.2,0.1-0.3,0.2-0.3h1c0.1,0,0.2,0,0.2,0.1v0.1c0,0.6,0.7,1.1,1.7,1.1
				s1.6-0.5,1.6-1.1c0-0.7-0.8-0.9-1.8-1.2c-1.4-0.4-3-0.9-3-2.5c0-1.5,1.2-2.3,3.1-2.3c1.9,0,3.1,1,3.1,2.3c0,0.1-0.1,0.2-0.2,0.2
				h-1c-0.1,0-0.2,0-0.2-0.1v-0.1c0-0.6-0.6-1.1-1.7-1.1c-0.9,0-1.6,0.4-1.6,1c0,0.7,0.8,0.9,1.8,1.2c1.4,0.4,3,0.8,3,2.5
				c0,1.5-1.2,2.4-3.2,2.4C527.9,105.5,526.6,104.6,526.6,103.3z"/>
			<path class="st1" d="M537.6,108.4v-0.8c0-0.1,0-0.2,0.1-0.2h0.1c1.2,0,1.6-0.3,2.1-1.9c0,0,0,0,0-0.1l-2.6-7.8
				c0-0.2,0-0.3,0.2-0.3h1.1c0.1,0,0.2,0,0.3,0.2l1.8,5.8c0,0.1,0.1,0.1,0.1,0l1.7-5.7c0-0.1,0.1-0.2,0.3-0.2h1.1
				c0.2,0,0.2,0.1,0.2,0.3l-2.9,8.4c-0.7,2.1-1.2,2.6-3.4,2.6h-0.1C537.7,108.6,537.6,108.5,537.6,108.4z"/>
		</g>
		<g class="st0">
			<path class="st1" d="M464,123.3c-0.2-0.5-0.3-1.2-0.3-2s0.1-1.4,0.3-1.9c0.5-1.4,1.7-2.3,3.3-2.3c1.6,0,2.8,0.8,3.2,2.2
				c0.2,0.5,0.3,1.2,0.3,1.9c0,0.7-0.1,1.4-0.3,2c-0.5,1.4-1.7,2.3-3.3,2.3C465.7,125.6,464.5,124.7,464,123.3z M469.1,122.9
				c0.1-0.4,0.2-1,0.2-1.5c0-0.6-0.1-1.1-0.2-1.5c-0.3-0.9-0.9-1.4-1.9-1.4c-0.9,0-1.6,0.5-1.8,1.4c-0.1,0.4-0.2,0.9-0.2,1.5
				s0.1,1.1,0.2,1.5c0.3,0.9,0.9,1.4,1.9,1.4C468.2,124.2,468.8,123.7,469.1,122.9z"/>
			<path class="st1" d="M479.7,121.4c0,0.7-0.1,1.4-0.2,1.9c-0.4,1.4-1.5,2.2-3.1,2.2c-0.7,0-1.4-0.3-1.9-0.8h-0.1v3.5
				c0,0.1-0.1,0.2-0.2,0.2h-1.1c-0.1,0-0.2-0.1-0.2-0.2v-10.7c0-0.1,0.1-0.2,0.2-0.2h1.1c0.1,0,0.2,0.1,0.2,0.2v0.4
				c0,0.1,0,0.1,0.1,0c0.5-0.5,1.1-0.8,1.9-0.8c1.6,0,2.6,0.8,3,2.2C479.7,119.9,479.7,120.6,479.7,121.4z M478.2,121.4
				c0-0.9-0.1-1.5-0.4-2c-0.3-0.6-0.8-0.9-1.5-0.9c-0.6,0-1.1,0.3-1.4,0.9c-0.3,0.5-0.4,1.1-0.4,2s0.1,1.6,0.4,2
				c0.3,0.5,0.8,0.8,1.4,0.8s1.1-0.3,1.4-0.8S478.2,122.3,478.2,121.4z"/>
			<path class="st1" d="M486.9,123.2c0.1-0.1,0.2-0.2,0.3-0.1l0.7,0.4c0.1,0.1,0.2,0.2,0.1,0.3c-0.6,1-1.6,1.7-3.1,1.7
				s-2.6-0.7-3.1-2c-0.3-0.6-0.4-1.4-0.4-2.3c0-0.7,0-1.3,0.2-1.8c0.4-1.5,1.6-2.4,3.3-2.4c2.1,0,3.1,1.2,3.4,3.1
				c0.1,0.4,0.1,0.9,0.1,1.4c0,0.2-0.1,0.2-0.2,0.2H483c0,0-0.1,0-0.1,0.1c0,0.4,0,0.7,0.1,0.9c0.2,0.8,1,1.4,2,1.4
				C486,124.2,486.6,123.9,486.9,123.2z M483.1,119.8c-0.1,0.2-0.1,0.5-0.1,0.9c0,0,0,0.1,0.1,0.1h3.6c0,0,0.1,0,0.1-0.1
				c0-0.3,0-0.6-0.1-0.8c-0.2-0.8-0.8-1.4-1.8-1.4C483.9,118.5,483.3,119,483.1,119.8z"/>
			<path class="st1" d="M494.7,117.4c0.1,0.1,0.2,0.2,0.1,0.3l-0.2,1c0,0.2-0.1,0.2-0.3,0.1c-0.2-0.1-0.5-0.1-0.8-0.1
				c-1,0-1.7,0.7-1.7,1.8v4.6c0,0.1-0.1,0.2-0.2,0.2h-1.1c-0.1,0-0.2-0.1-0.2-0.2v-7.7c0-0.1,0.1-0.2,0.2-0.2h1.1
				c0.1,0,0.2,0.1,0.2,0.2v0.7c0,0.1,0,0.1,0.1,0c0.4-0.7,1.1-1.1,2-1.1C494.2,117.2,494.5,117.3,494.7,117.4z"/>
			<path class="st1" d="M502.4,119.9v5.3c0,0.1-0.1,0.2-0.2,0.2h-1.1c-0.1,0-0.2-0.1-0.2-0.2v-0.4c0-0.1,0-0.1-0.1,0
				c-0.6,0.6-1.4,0.9-2.4,0.9c-1.4,0-2.7-0.7-2.7-2.4c0-1.6,1.2-2.7,3.3-2.7h1.8c0,0,0.1,0,0.1-0.1V120c0-0.9-0.5-1.5-1.6-1.5
				c-0.9,0-1.4,0.4-1.6,0.9c0,0.1-0.1,0.2-0.3,0.2l-1.2-0.1c-0.1,0-0.2-0.1-0.2-0.2c0.2-1.2,1.5-2.1,3.2-2.1
				C501.1,117.2,502.4,118.3,502.4,119.9z M500.8,122.7v-0.9c0,0,0-0.1-0.1-0.1h-1.5c-1.2,0-2.1,0.5-2.1,1.4c0,0.8,0.7,1.2,1.5,1.2
				C499.8,124.3,500.8,123.6,500.8,122.7z"/>
			<path class="st1" d="M504.4,123.3c-0.2-0.5-0.2-1.2-0.2-1.9c0-0.9,0.1-1.4,0.2-1.9c0.4-1.4,1.6-2.2,3.3-2.2
				c1.6,0,2.9,0.9,3.3,2.1c0.1,0.2,0.1,0.3,0.1,0.4s-0.1,0.2-0.2,0.3l-1,0.1c-0.1,0-0.2,0-0.3-0.2v-0.2c-0.2-0.7-0.8-1.3-1.8-1.3
				c-0.9,0-1.6,0.5-1.8,1.3c-0.1,0.3-0.1,0.8-0.1,1.5s0.1,1.2,0.1,1.5c0.2,0.8,0.8,1.4,1.8,1.4c0.9,0,1.6-0.5,1.8-1.3v-0.1l0,0
				c0-0.1,0.1-0.2,0.3-0.2l1,0.2c0.1,0,0.2,0.1,0.2,0.3c0,0.1,0,0.2-0.1,0.3c-0.4,1.3-1.7,2.2-3.3,2.2
				C506,125.6,504.8,124.7,504.4,123.3z"/>
			<path class="st1" d="M512.7,115.1c0-0.6,0.4-1,1.1-1c0.6,0,1,0.4,1,1s-0.4,1-1,1C513.1,116.1,512.7,115.7,512.7,115.1z
				 M513,125.2v-7.7c0-0.1,0.1-0.2,0.2-0.2h1.1c0.1,0,0.2,0.1,0.2,0.2v7.7c0,0.1-0.1,0.2-0.2,0.2h-1.1
				C513.1,125.4,513,125.3,513,125.2z"/>
			<path class="st1" d="M516.9,123.3c-0.2-0.5-0.3-1.2-0.3-2s0.1-1.4,0.3-1.9c0.5-1.4,1.7-2.3,3.3-2.3s2.8,0.8,3.2,2.2
				c0.2,0.5,0.3,1.2,0.3,1.9c0,0.7-0.1,1.4-0.3,2c-0.5,1.4-1.7,2.3-3.3,2.3C518.6,125.6,517.4,124.7,516.9,123.3z M522,122.9
				c0.1-0.4,0.2-1,0.2-1.5c0-0.6-0.1-1.1-0.2-1.5c-0.3-0.9-0.9-1.4-1.9-1.4c-0.9,0-1.6,0.5-1.8,1.4c-0.1,0.4-0.2,0.9-0.2,1.5
				s0.1,1.1,0.2,1.5c0.3,0.9,0.9,1.4,1.9,1.4C521.1,124.2,521.7,123.7,522,122.9z"/>
			<path class="st1" d="M532.2,120v5.2c0,0.1-0.1,0.2-0.2,0.2h-1.1c-0.1,0-0.2-0.1-0.2-0.2v-4.9c0-1.1-0.7-1.8-1.7-1.8
				c-0.9,0-1.6,0.6-1.7,1.5v5.2c0,0.1-0.1,0.2-0.2,0.2H526c-0.1,0-0.2-0.1-0.2-0.2v-7.7c0-0.1,0.1-0.2,0.2-0.2h1.1
				c0.1,0,0.2,0.1,0.2,0.2v0.4c0,0.1,0,0.1,0.1,0c0.5-0.6,1.2-0.8,2-0.8C531.1,117.2,532.2,118.3,532.2,120z"/>
			<path class="st1" d="M539.7,123.2c0.1-0.1,0.2-0.2,0.3-0.1l0.7,0.4c0.1,0.1,0.2,0.2,0.1,0.3c-0.6,1-1.6,1.7-3.1,1.7
				s-2.6-0.7-3.1-2c-0.3-0.6-0.4-1.4-0.4-2.3c0-0.7,0-1.3,0.2-1.8c0.4-1.5,1.6-2.4,3.3-2.4c2.1,0,3.1,1.2,3.4,3.1
				c0.1,0.4,0.1,0.9,0.1,1.4c0,0.2-0.1,0.2-0.2,0.2h-5.1c0,0-0.1,0-0.1,0.1c0,0.4,0,0.7,0.1,0.9c0.2,0.8,1,1.4,2,1.4
				C538.7,124.2,539.3,123.9,539.7,123.2z M535.9,119.8c-0.1,0.2-0.1,0.5-0.1,0.9c0,0,0,0.1,0.1,0.1h3.6c0,0,0.1,0,0.1-0.1
				c0-0.3,0-0.6-0.1-0.8c-0.2-0.8-0.8-1.4-1.8-1.4S536.1,119,535.9,119.8z"/>
			<path class="st1" d="M542.7,123.3L542.7,123.3c0-0.2,0.1-0.3,0.2-0.3h1c0.1,0,0.2,0,0.2,0.1v0.1c0,0.6,0.7,1.1,1.7,1.1
				s1.6-0.5,1.6-1.1c0-0.7-0.8-0.9-1.8-1.2c-1.4-0.4-3-0.9-3-2.5c0-1.5,1.2-2.3,3.1-2.3c1.9,0,3.1,1,3.1,2.3c0,0.1-0.1,0.2-0.2,0.2
				h-1c-0.1,0-0.2,0-0.2-0.1v-0.1c0-0.6-0.6-1.1-1.7-1.1c-0.9,0-1.6,0.4-1.6,1c0,0.7,0.8,0.9,1.8,1.2c1.4,0.4,3,0.8,3,2.5
				c0,1.5-1.2,2.4-3.2,2.4C543.9,125.5,542.7,124.6,542.7,123.3z"/>
		</g>
		<g class="st0">
			<path class="st1" d="M270.3,110.8v-0.4c0-0.1,0.1-0.2,0.2-0.2h1c0.1,0,0.2,0.1,0.2,0.2v0.3c0,1.1,1,1.9,2.6,1.9
				c1.5,0,2.2-0.7,2.2-1.7s-0.9-1.5-2.7-2.2c-1.8-0.7-3.4-1.3-3.4-3.3c0-1.9,1.4-2.9,3.6-2.9c2.4,0,4,1.3,4,3.2v0.2
				c0,0.1-0.1,0.2-0.2,0.2h-1c-0.1,0-0.2-0.1-0.2-0.2v-0.2c0-1.1-0.9-1.9-2.5-1.9c-1.3,0-2.1,0.6-2.1,1.6c0,1.1,0.8,1.4,2.7,2.1
				c1.8,0.7,3.5,1.4,3.5,3.3c0,1.8-1.5,3.1-3.9,3.1S270.3,112.7,270.3,110.8z"/>
			<path class="st1" d="M279.9,103.4c0-0.6,0.4-1,1.1-1c0.6,0,1,0.4,1,1s-0.4,1-1,1C280.3,104.4,279.9,104,279.9,103.4z
				 M280.2,113.5v-7.7c0-0.1,0.1-0.2,0.2-0.2h1.1c0.1,0,0.2,0.1,0.2,0.2v7.7c0,0.1-0.1,0.2-0.2,0.2h-1.1
				C280.3,113.8,280.2,113.7,280.2,113.5z"/>
			<path class="st1" d="M283.8,111.7L283.8,111.7c0-0.2,0.1-0.3,0.2-0.3h1c0.1,0,0.2,0,0.2,0.1v0.1c0,0.6,0.7,1.1,1.7,1.1
				s1.6-0.5,1.6-1.1c0-0.7-0.8-0.9-1.8-1.2c-1.4-0.4-3-0.9-3-2.5c0-1.5,1.2-2.3,3.1-2.3s3.1,1,3.1,2.3c0,0.1-0.1,0.2-0.2,0.2h-1
				c-0.1,0-0.2,0-0.2-0.1v-0.1c0-0.6-0.6-1.1-1.7-1.1c-0.9,0-1.6,0.4-1.6,1c0,0.7,0.8,0.9,1.8,1.2c1.4,0.4,3,0.8,3,2.5
				c0,1.5-1.2,2.4-3.2,2.4C285,113.9,283.8,112.9,283.8,111.7z"/>
			<path class="st1" d="M295.7,106.9H294c0,0-0.1,0-0.1,0.1v4.2c0,0.9,0.4,1.3,1.2,1.3h0.4c0.1,0,0.2,0.1,0.2,0.2v0.8
				c0,0.1-0.1,0.2-0.2,0.3c-0.2,0-0.4,0-0.7,0c-1.5,0-2.4-0.4-2.4-2V107c0,0,0-0.1-0.1-0.1h-0.9c-0.1,0-0.2-0.1-0.2-0.2v-0.8
				c0-0.1,0.1-0.2,0.2-0.2h0.9c0,0,0.1,0,0.1-0.1v-1.8c0-0.1,0.1-0.2,0.2-0.2h1c0.1,0,0.2,0.1,0.2,0.2v1.8c0,0,0,0.1,0.1,0.1h1.6
				c0.1,0,0.2,0.1,0.2,0.2v0.8C295.9,106.8,295.8,106.9,295.7,106.9z"/>
			<path class="st1" d="M302.9,111.6c0.1-0.1,0.2-0.2,0.3-0.1l0.7,0.4c0.1,0.1,0.2,0.2,0.1,0.3c-0.6,1-1.6,1.7-3.1,1.7
				s-2.6-0.7-3.1-2c-0.3-0.6-0.4-1.4-0.4-2.3c0-0.7,0-1.3,0.2-1.8c0.4-1.5,1.6-2.4,3.2-2.4c2.1,0,3.1,1.2,3.4,3.1
				c0.1,0.4,0.1,0.9,0.1,1.4c0,0.2-0.1,0.2-0.2,0.2H299c0,0-0.1,0-0.1,0.1c0,0.4,0,0.7,0.1,0.9c0.2,0.8,1,1.4,2,1.4
				C301.9,112.6,302.5,112.2,302.9,111.6z M299.1,108.1c-0.1,0.2-0.1,0.5-0.1,0.9c0,0,0,0.1,0.1,0.1h3.6c0,0,0.1,0,0.1-0.1
				c0-0.3,0-0.6-0.1-0.8c-0.2-0.8-0.8-1.4-1.8-1.4S299.3,107.3,299.1,108.1z"/>
			<path class="st1" d="M317.3,108.3v5.3c0,0.1-0.1,0.2-0.2,0.2h-1c-0.1,0-0.2-0.1-0.2-0.2v-4.9c0-1.1-0.6-1.7-1.6-1.7
				s-1.7,0.7-1.7,1.7v5c0,0.1-0.1,0.2-0.2,0.2h-1c-0.1,0-0.2-0.1-0.2-0.2v-4.9c0-1.1-0.6-1.7-1.6-1.7s-1.6,0.7-1.6,1.7v5
				c0,0.1-0.1,0.2-0.2,0.2h-1.1c-0.1,0-0.2-0.1-0.2-0.2v-7.7c0-0.1,0.1-0.2,0.2-0.2h1.1c0.1,0,0.2,0.1,0.2,0.2v0.4
				c0,0.1,0,0.1,0.1,0c0.5-0.6,1.2-0.8,2-0.8c1.1,0,1.9,0.4,2.3,1.2h0.1c0.5-0.9,1.4-1.2,2.4-1.2
				C316.3,105.5,317.3,106.5,317.3,108.3z"/>
			<path class="st1" d="M325.6,108.2v5.3c0,0.1-0.1,0.2-0.2,0.2h-1.1c-0.1,0-0.2-0.1-0.2-0.2v-0.4c0-0.1,0-0.1-0.1,0
				c-0.6,0.6-1.4,0.9-2.4,0.9c-1.4,0-2.7-0.7-2.7-2.4c0-1.6,1.2-2.7,3.3-2.7h1.8c0,0,0.1,0,0.1-0.1v-0.4c0-0.9-0.5-1.5-1.6-1.5
				c-0.9,0-1.4,0.4-1.6,0.9c0,0.1-0.1,0.2-0.3,0.2l-1.2-0.1c-0.1,0-0.2-0.1-0.2-0.2c0.2-1.2,1.5-2.1,3.2-2.1
				C324.4,105.5,325.6,106.6,325.6,108.2z M324.1,111v-0.9c0,0,0-0.1-0.1-0.1h-1.5c-1.2,0-2.1,0.5-2.1,1.4c0,0.8,0.7,1.2,1.5,1.2
				C323.1,112.6,324.1,112,324.1,111z"/>
			<path class="st1" d="M327.4,111.7L327.4,111.7c0-0.2,0.1-0.3,0.2-0.3h1c0.1,0,0.2,0,0.2,0.1v0.1c0,0.6,0.7,1.1,1.7,1.1
				s1.6-0.5,1.6-1.1c0-0.7-0.8-0.9-1.8-1.2c-1.4-0.4-3-0.9-3-2.5c0-1.5,1.2-2.3,3.1-2.3s3.1,1,3.1,2.3c0,0.1-0.1,0.2-0.2,0.2h-1
				c-0.1,0-0.2,0-0.2-0.1v-0.1c0-0.6-0.6-1.1-1.7-1.1c-0.9,0-1.6,0.4-1.6,1c0,0.7,0.8,0.9,1.8,1.2c1.4,0.4,3,0.8,3,2.5
				c0,1.5-1.2,2.4-3.2,2.4C328.6,113.9,327.4,112.9,327.4,111.7z"/>
		</g>
		<g transform="matrix(1, 0, 0, 1, -9, -6)">
			<path id="Trazado_260-2_1_" class="st2" d="M117,25.1c49.1,0,89,39.8,89,89s-39.8,89-89,89s-89-39.8-89-89l0,0
				C28.1,64.9,67.9,25.1,117,25.1 M117,6C57.4,6,9,54.4,9,114s48.4,108,108,108c59.7,0,108-48.4,108-108S176.7,6,117,6
				C117.1,6,117,6,117,6z"/>
		</g>
		<path id="Trazado_261" class="st3" d="M306.4,19.1c49.1,0,89,39.8,89,89s-39.8,89-89,89s-89-39.8-89-89l0,0
			C217.5,58.9,257.3,19.1,306.4,19.1 M306.4,0c-59.7,0-108,48.4-108,108s48.4,108,108,108c59.7,0,108-48.4,108-108S366.1,0,306.4,0
			L306.4,0L306.4,0z"/>
		<g transform="matrix(1, 0, 0, 1, -9, -6)">
			<path id="Trazado_262-2_1_" class="st3" d="M514.3,25.1c49.1,0,89,39.8,89,89s-39.8,89-89,89s-89-39.8-89-89
				C425.4,64.9,465.2,25.1,514.3,25.1 M514.3,6c-59.7,0-108,48.4-108,108s48.4,108,108,108c59.7,0,108-48.4,108-108
				C622.4,54.4,574,6,514.3,6C514.4,6,514.3,6,514.3,6z"/>
		</g>
		<g transform="matrix(1, 0, 0, 1, -9, -6)">
			<path id="Trazado_263-2_1_" class="st4" d="M713,25.1c49.1,0,89,39.8,89,89s-39.8,89-89,89s-89-39.8-89-89
				C624.1,64.9,663.9,25.1,713,25.1 M713,6c-59.7,0-108,48.4-108,108c0,59.7,48.4,108,108,108c59.7,0,108-48.4,108-108
				S772.7,6,713,6L713,6z"/>
		</g>
		<path id="Trazado_264" class="st4" d="M19.1,109.8V108c0-49.1,39.9-88.9,89-88.9S197,58.9,197,108v1.8h19V108
			C216,48.4,167.6,0,108,0C48.4,0.1,0,48.4,0,108v1.8H19.1z"/>
		<g transform="matrix(1, 0, 0, 1, -9, -6)">
			<path id="Trazado_265-2_1_" class="st4" d="M404.4,115.8c-0.9,49.1-41.5,88.1-90.5,87.1c-47.7-0.9-86.2-39.4-87.1-87.1h-19.1
				c0.9,59.6,50,107.1,109.6,106.2c58.2-0.9,105.2-47.9,106.2-106.2H404.4z"/>
		</g>
		<path id="Trazado_266" class="st4" d="M416.5,109.8V108c0-49.1,39.8-88.9,88.9-88.9s88.9,39.8,88.9,88.9l0,0v1.8h19.1V108
			c0-59.7-48.4-108-108-108s-108,48.4-108,108v1.8H416.5z"/>
		<circle id="Elipse_61" class="st5" cx="207.5" cy="109.8" r="20"/>
		<circle id="Elipse_62" class="st5" cx="405.9" cy="109.8" r="20"/>
		<circle id="Elipse_63" class="st5" cx="604.5" cy="109.8" r="20"/>
		<path id="Trazado_267" class="st6" d="M204.2,99.9l6.3,0.6l3.5,8.8l-5,8l-6.3-0.6l5-8L204.2,99.9z"/>
		<path id="Trazado_268" class="st6" d="M401.4,102.7l6.3,0.6l3.5,8.8l-5,8l-6.3-0.6l5-8L401.4,102.7z"/>
		<path id="Trazado_269" class="st6" d="M600.1,99.9l6.3,0.6l3.5,8.8l-5,8l-6.3-0.6l5-8L600.1,99.9z"/>
	</g>
	<g id="Grupo_2363" transform="translate(604.308 1705.926)">
		<ellipse id="Elipse_409" class="st7" cx="86.4" cy="12" rx="86.4" ry="12"/>
		<ellipse id="Elipse_410" class="st7" cx="297.4" cy="12" rx="86.4" ry="12"/>
		<ellipse id="Elipse_411" class="st7" cx="501.9" cy="12" rx="86.4" ry="12"/>
		<ellipse id="Elipse_412" class="st7" cx="706.3" cy="12" rx="86.4" ry="12"/>
	</g>
</g>
</svg>
